<?xml version="1.0" encoding="iso-8859-1"?>
<!-- Generator: Adobe Illustrator 18.0.0, SVG Export Plug-In . SVG Version: 6.00 Build 0)  -->
<!DOCTYPE svg PUBLIC "-//W3C//DTD SVG 1.1//EN" "http://www.w3.org/Graphics/SVG/1.1/DTD/svg11.dtd">
<svg version="1.1" id="Capa_1" xmlns="http://www.w3.org/2000/svg" xmlns:xlink="http://www.w3.org/1999/xlink" x="0px" y="0px"
	 viewBox="0 0 462.885 462.885" style="enable-background:new 0 0 462.885 462.885;" xml:space="preserve">
	<g fill="#82d8cf">
<path d="M359.544,87.075c-19.054-25.112-45.501-44.314-75.086-54.679c-0.669-8.337-4.226-16.086-10.205-22.065
	C267.591,3.669,258.733,0,249.312,0c-6.385,0-12.512,1.685-17.87,4.845C226.084,1.685,219.957,0,213.572,0
	c-9.421,0-18.278,3.669-24.94,10.331c-5.981,5.981-9.539,13.734-10.206,22.074c-22.684,7.933-43.519,20.987-60.62,38.089
	c-30.353,30.353-47.068,70.708-47.068,113.631v268.76c0,5.523,4.478,10,10,10h37.38c5.522,0,10-4.477,10-10v-268.76
	c0-24.864,9.001-48.907,25.344-67.702c15.095-17.359,35.458-29.171,57.761-33.62l7.851,7.851l-15.131,27.642
	c-2.652,4.844-0.875,10.921,3.97,13.573c1.524,0.834,3.17,1.23,4.793,1.23c3.536,0,6.963-1.88,8.78-5.2l9.958-18.192l9.959,18.192
	c2.65,4.844,8.727,6.621,13.573,3.97c4.845-2.652,6.622-8.729,3.97-13.573l-15.132-27.642l7.851-7.851
	c22.303,4.449,42.666,16.261,57.761,33.62c16.343,18.795,25.344,42.838,25.344,67.702v268.76c0,5.523,4.478,10,10,10h37.38
	c5.522,0,10-4.477,10-10v-268.76C392.147,148.745,380.873,115.186,359.544,87.075z M354.767,342.529l17.38,13.843v37.758
	l-17.38-13.843V342.529z M354.767,316.96v-37.758l17.38,13.843v37.758L354.767,316.96z M354.767,253.632v-37.758l17.38,13.843
	v37.758L354.767,253.632z M354.767,190.304v-6.18c0-10.743-1.414-21.356-4.134-31.591l18.698,3.335
	c1.865,9.202,2.816,18.652,2.816,28.257v20.023L354.767,190.304z M202.774,24.473c2.977-2.977,6.888-4.466,10.798-4.466
	c3.911,0,7.822,1.489,10.799,4.466c3.906,3.905,10.236,3.905,14.143,0c5.952-5.953,15.643-5.955,21.597,0
	c2.885,2.885,4.473,6.719,4.473,10.799s-1.588,7.914-4.473,10.799l-28.668,28.668L202.774,46.07
	c-2.885-2.885-4.473-6.719-4.473-10.799S199.89,27.357,202.774,24.473z M108.117,380.287l-17.38,13.844v-37.758l17.38-13.844
	V380.287z M108.117,316.96l-17.38,13.844v-37.758l17.38-13.844V316.96z M108.117,253.632l-17.38,13.844v-37.758l17.38-13.844
	V253.632z M108.117,184.125v6.18l-17.38,13.844v-20.023c0-9.647,0.971-19.144,2.855-28.385l18.693-3.334
	C109.543,162.68,108.117,173.336,108.117,184.125z M90.737,442.885v-23.184l17.38-13.844v37.028H90.737z M120.348,130.651
	l-20.573,3.669c5.911-15.646,14.637-30.188,25.917-43.005l13.35,11.224c-0.224,0.254-0.453,0.503-0.675,0.759
	C131.115,111.64,125.076,120.849,120.348,130.651z M153.541,88.599l-13.543-11.386c12.626-10.798,27.083-19.314,42.592-25.063
	c1.598,2.924,3.619,5.64,6.042,8.062l6.164,6.164C179.777,71.065,165.767,78.618,153.541,88.599z M274.253,60.212
	c2.417-2.417,4.435-5.127,6.032-8.045c15.364,5.708,29.699,14.151,42.23,24.783l-13.516,11.364
	c-12.144-9.841-26.033-17.293-40.91-21.938L274.253,60.212z M323.549,102.21l13.343-11.218c2.338,2.638,4.586,5.359,6.72,8.171
	c8.281,10.915,14.827,22.771,19.552,35.288l-20.561-3.667c-4.738-9.853-10.8-19.107-18.086-27.486
	C324.198,102.932,323.871,102.573,323.549,102.21z M354.767,442.885v-37.028l17.38,13.843v23.185H354.767z"/>

</g>

</svg>
