<?xml version="1.0" encoding="iso-8859-1"?>
<svg version="1.1" id="Capa_1" xmlns="http://www.w3.org/2000/svg" xmlns:xlink="http://www.w3.org/1999/xlink" x="0px" y="0px"
	 viewBox="0 0 453.53 453.53" style="enable-background:new 0 0 453.53 453.53;" xml:space="preserve">
<g fill="#e63125">
<path d="M395.828,158.817c-1.628-3.557-5.181-5.837-9.092-5.837h-2.442c7.352-14.966,3.163-33.232-10.333-43.438
	c-0.018-0.014-0.043-0.032-0.068-0.051c-4.33-3.296-6.554-8.686-5.801-14.128c2.44-17.635-8.714-34.306-25.965-38.783
	c-5.298-1.375-9.443-5.52-10.823-10.836c-4.472-17.232-21.145-28.387-38.828-25.939c-5.407,0.749-10.814-1.492-14.051-5.77
	c-0.019-0.026-0.059-0.08-0.079-0.105C267.6-0.281,247.918-4.184,232.562,4.849c-4.721,2.777-10.586,2.777-15.307,0
	c-15.357-9.034-35.039-5.131-45.807,9.107c-3.294,4.354-8.7,6.599-14.023,5.859c-0.028-0.004-0.106-0.016-0.134-0.02
	c-17.638-2.439-34.306,8.715-38.783,25.965c-1.37,5.278-5.49,9.413-10.76,10.803c-0.026,0.006-0.051,0.013-0.077,0.02
	c-17.232,4.473-28.386,21.145-25.939,38.828c0.749,5.408-1.492,10.814-5.875,14.129c-13.523,10.227-17.702,28.546-10.289,43.527
	c-3.414,0.422-6.411,2.568-7.867,5.749c-1.628,3.557-1.033,7.736,1.523,10.697l137.292,159.034v94.732
	c0,16.679,13.57,30.249,30.249,30.249s30.249-13.57,30.249-30.249v-94.732l137.291-159.034
	C396.861,166.553,397.456,162.374,395.828,158.817z M87.95,125.471c10.125-7.657,15.333-20.226,13.587-32.85
	c-1.047-7.566,3.724-14.719,11.104-16.665c0.024-0.006,0.049-0.013,0.074-0.019c12.317-3.198,21.955-12.835,25.156-25.171
	c1.924-7.412,9.09-12.207,16.594-11.172c0.028,0.004,0.106,0.016,0.135,0.02c12.57,1.735,25.143-3.47,32.822-13.623
	c4.622-6.111,13.087-7.791,19.692-3.905c10.977,6.457,24.613,6.457,35.589,0c6.606-3.886,15.071-2.206,19.635,3.828
	c0.019,0.026,0.059,0.08,0.079,0.105c7.658,10.125,20.229,15.332,32.85,13.587c7.588-1.052,14.755,3.748,16.684,11.178
	c3.197,12.317,12.834,21.955,25.17,25.157c7.412,1.924,12.209,9.094,11.153,16.729c-1.74,12.575,3.469,25.143,13.593,32.8
	c0.019,0.014,0.043,0.033,0.068,0.051c6.079,4.628,7.743,13.073,3.866,19.663l-4.586,7.795h-71.83
	c5.589-13.913,8.511-28.86,8.511-43.997c0-5.523-4.477-10-10-10c-26.161,0-50.928,8.392-71.617,24.263
	c-8.32,6.369-15.666,13.722-21.962,21.954c-4.881-6.031-10.449-11.474-16.68-16.243c-17.3-13.271-38.001-20.285-59.866-20.285
	c-5.523,0-10,4.477-10,10c0,11.762,2.108,23.388,6.157,34.309H88.602l-4.585-7.795C80.131,138.581,81.81,130.115,87.95,125.471z
	 M135.668,152.98c-3.609-7.426-6.039-15.391-7.165-23.59c13.433,1.819,26.051,7.066,36.97,15.441
	c3.256,2.492,6.281,5.218,9.08,8.148H135.668z M267.47,152.98h-53.701c4.382-5.085,9.275-9.726,14.676-13.859
	c14.361-11.017,31.088-17.69,48.883-19.581C276.068,131.198,272.727,142.538,267.47,152.98z M88.638,172.98h210.612l-65.729,141.849
	h-22.427L88.638,172.98z M216.516,372.805h20.498v17.976h-20.498V372.805z M216.516,352.805v-17.977h20.498v17.977H216.516z
	 M226.765,433.53c-5.651,0-10.249-4.598-10.249-10.249v-12.499h20.498v12.499C237.014,428.932,232.416,433.53,226.765,433.53z
	 M270.774,282.003l50.518-109.023h43.6L270.774,282.003z"/>

</g>

</svg>
