<?xml version="1.0" encoding="iso-8859-1"?>
<svg version="1.1" id="Capa_1" xmlns="http://www.w3.org/2000/svg" xmlns:xlink="http://www.w3.org/1999/xlink" x="0px" y="0px"
	 width="921px" height="921px" viewBox="0 0 921 921" style="enable-background:new 0 0 921 921;" xml:space="preserve">
<g>
	<g fill="#eb974e">
		<path d="M280.9,800.4c56,0,109.5-16.3,155.1-46.6c-6.2-5.4-12.2-11.1-18.1-17.1c-13.3-13.601-25.2-28.301-35.7-43.801
			c-29.8,17.5-64.4,27.5-101.4,27.5C170.1,720.4,80,630.3,80,519.6c0-85.2,53.4-158.2,128.4-187.3l-57.9-61.6
			c-24.9,13-47.9,29.9-68.3,50.3C29.2,374,0,444.5,0,519.5S29.2,665,82.2,718C135.3,771.201,205.9,800.4,280.9,800.4z"/>
		<path d="M537.2,347.4c30.2-18.1,65.4-28.6,103.1-28.6c110.7,0,200.801,90.1,200.801,200.8S751,720.4,640.3,720.4
			c-50.6,0-100.699-19.899-137.6-54.6c-39.9-37.6-63.2-91.4-63.2-146.2c0-17.5,2.3-34.6,6.5-50.8c-4.399-14.4-10.7-28.1-18.7-41
			c-9.6-15.2-21.399-28.8-35-40.3c-21.399,40.2-32.8,85.2-32.8,132c0,80.899,36.101,159.899,97.5,212.7
			c48.601,41.899,111.9,66.3,176,68c2.4,0.1,4.8,0.1,7.3,0.1c75,0,145.5-29.2,198.5-82.2S921,594.6,921,519.6
			s-29.2-145.5-82.2-198.5s-123.5-82.2-198.5-82.2c-56.699,0-110.8,16.7-156.8,47.8C503.9,304.3,522,324.8,537.2,347.4z"/>
		<path d="M449.3,295.1c-12-9.1-24.8-17.3-38.3-24.3l-57.7,61.5c1.7,0.7,3.5,1.4,5.2,2.1c42.3,17.8,78,50.2,99.601,90.7
			c23.199,43.5,29.6,95.4,17.699,143.2l6.301,15.5c10.399,25.5,27,48.2,47.8,66c16.6-31.6,26.899-66.1,30.5-102.1
			c0.899-9.301,1.399-18.7,1.399-28C561.7,431.9,518.5,347.7,449.3,295.1z"/>
		<path d="M262.6,349c4.9,5.2,11.6,7.9,18.2,7.9c6.601,0,13.301-2.6,18.2-7.9l24.2-25.7l100.5-106.8c7.8-8.3,9-20.9,2.9-30.5
			l-34.2-53.8c-4.601-7.2-12.5-11.6-21.101-11.6H190.5c-8.5,0-16.5,4.4-21.1,11.6L135.2,186c-6.1,9.6-5,22.2,2.9,30.5L262.6,349z"/>
	</g>
</g>
</svg>
