<?xml version="1.0" encoding="iso-8859-1"?>
<!-- Generator: Adobe Illustrator 18.0.0, SVG Export Plug-In . SVG Version: 6.00 Build 0)  -->
<!DOCTYPE svg PUBLIC "-//W3C//DTD SVG 1.1//EN" "http://www.w3.org/Graphics/SVG/1.1/DTD/svg11.dtd">
<svg version="1.1" id="Capa_1" xmlns="http://www.w3.org/2000/svg" xmlns:xlink="http://www.w3.org/1999/xlink" x="0px" y="0px"
	 viewBox="0 0 465.666 465.666" style="enable-background:new 0 0 465.666 465.666;" xml:space="preserve">
<g fill="#bc7e62">
	<path d="M407.475,311.513c-3.229-2.361-7.557-2.568-10.998-0.529l-5.711,3.384c-14.855-25.615-35.74-47.317-60.935-63.154
		c-16.347-10.275-34.13-17.821-52.698-22.452V94.554l33.505-33.504c13.943-13.943,13.943-36.631-0.001-50.576
		c-11.772-11.773-29.781-13.604-43.493-5.498C261.684,1.731,255.432,0,248.916,0c-9.552,0-18.532,3.72-25.287,10.475
		c-13.943,13.944-13.943,36.632,0,50.575l33.504,33.504v130.408c-8.018-1.071-16.13-1.631-24.297-1.631
		c-8.166,0-16.279,0.56-24.296,1.631v-56.539l33.504-33.504c6.754-6.755,10.475-15.735,10.475-25.288
		c0-9.552-3.721-18.533-10.475-25.288c-6.755-6.754-15.735-10.474-25.287-10.474c-6.513,0-12.76,1.729-18.217,4.97
		c-5.457-3.241-11.704-4.97-18.217-4.97c-9.553,0-18.533,3.72-25.288,10.474c-6.754,6.755-10.474,15.735-10.474,25.288
		c0,9.553,3.72,18.533,10.474,25.288l33.505,33.504v60.337c-18.568,4.632-36.351,12.177-52.698,22.452
		c-25.196,15.838-46.082,37.542-60.937,63.157l-5.714-3.386c-3.443-2.041-7.77-1.832-10.999,0.529
		c-3.23,2.361-4.742,6.42-3.845,10.319L80.31,434.537c4.224,18.329,20.309,31.129,39.117,31.129h226.812
		c18.81,0,34.895-12.801,39.117-31.129l25.964-112.705C412.217,317.933,410.706,313.874,407.475,311.513z M237.771,24.617
		C240.748,21.64,244.706,20,248.916,20c4.211,0,8.169,1.64,11.146,4.617c3.906,3.905,10.236,3.905,14.143,0
		c6.145-6.146,16.145-6.145,22.291,0c6.146,6.146,6.146,16.146,0,22.291L267.132,76.27l-29.361-29.362
		C231.625,40.762,231.625,30.762,237.771,24.617z M164.561,109.631c0-4.21,1.639-8.168,4.616-11.145
		c2.977-2.977,6.935-4.617,11.146-4.617c4.21,0,8.169,1.64,11.146,4.617c3.906,3.905,10.236,3.905,14.143,0
		c2.977-2.977,6.935-4.617,11.146-4.617c4.21,0,8.168,1.64,11.145,4.617c2.978,2.977,4.617,6.935,4.617,11.145
		c0,4.21-1.64,8.169-4.617,11.146l-29.361,29.362l-29.362-29.362C166.2,117.8,164.561,113.842,164.561,109.631z M337.329,445.666
		h-36.604l9.573-100.37l23.769-14.086l22.401,13.272L337.329,445.666z M109.203,344.476l22.383-13.265l23.776,14.093l9.583,100.363
		h-36.613L109.203,344.476z M175.446,345.215l23.628-14.004l23.747,14.073v100.382h-37.783L175.446,345.215z M242.821,345.284
		l23.749-14.074l23.645,14.012l-9.581,100.444h-37.813V345.284z M146.485,268.146c25.827-16.234,55.687-24.815,86.351-24.815
		c30.665,0,60.524,8.581,86.351,24.815c22.499,14.142,41.136,33.532,54.373,56.417l-5.737,3.4l-28.656-16.979
		c-3.143-1.863-7.052-1.862-10.196,0l-28.65,16.979l-28.65-16.979c-3.145-1.862-7.054-1.862-10.196,0l-28.651,16.979l-28.648-16.979
		c-3.145-1.863-7.053-1.863-10.197,0l-28.646,16.978l-28.645-16.978c-3.145-1.863-7.053-1.864-10.197,0l-28.648,16.979l-5.729-3.395
		C105.347,301.68,123.986,282.289,146.485,268.146z M99.8,430.046l-20.724-89.955l10.071,5.968l18.052,95.487
		C103.573,438.78,100.892,434.787,99.8,430.046z M365.866,430.047c-1.092,4.741-3.774,8.735-7.403,11.502l18.064-95.497
		l10.062-5.962L365.866,430.047z"/>
	<circle cx="175.896" cy="277.941" r="10.027"/>
	<circle cx="231.896" cy="291.941" r="10.027"/>
	<circle cx="289.896" cy="271.941" r="10.027"/>
</g>

</svg>
