<?xml version="1.0" encoding="iso-8859-1"?>
<!-- Generator: Adobe Illustrator 18.0.0, SVG Export Plug-In . SVG Version: 6.00 Build 0)  -->
<!DOCTYPE svg PUBLIC "-//W3C//DTD SVG 1.1//EN" "http://www.w3.org/Graphics/SVG/1.1/DTD/svg11.dtd">
<svg version="1.1" id="Capa_1" xmlns="http://www.w3.org/2000/svg" xmlns:xlink="http://www.w3.org/1999/xlink" x="0px" y="0px"
	 viewBox="0 0 378.203 378.203" style="enable-background:new 0 0 378.203 378.203;" xml:space="preserve">
<g fill="#3174f1">
		<path d="M339.844,146.982c-0.016-0.013-0.029-0.027-0.045-0.04l-29.639-24.113v-30.86c0-1.989-0.791-3.896-2.197-5.304
			L223.492,2.196C222.086,0.79,220.178,0,218.189,0H75.545c-4.142,0-7.5,3.357-7.5,7.5v115.578
			c-0.346,0.197-0.683,0.417-1.004,0.676L38.42,146.931c-0.014,0.01-0.023,0.021-0.035,0.031
			c-8.221,6.556-12.936,16.323-12.936,26.824v170.112c0,18.916,15.391,34.305,34.307,34.305h258.693
			c18.916,0,34.305-15.389,34.305-34.305V173.786C352.754,163.296,348.049,153.538,339.844,146.982z M310.16,142.166l12.773,10.393
			l-12.773,9.706V142.166z M83.045,15h127.644v76.97c0,4.143,3.357,7.5,7.5,7.5h76.971v74.192l-106.059,80.589L83.045,173.663V15z
			 M225.689,25.606l58.865,58.863h-58.865V25.606z M68.045,142.242v20.023l-12.756-9.693L68.045,142.242z M40.449,343.898V173.786
			c0-4.009,1.223-7.829,3.455-11.025l132.24,100.483L42.164,351.81C41.073,349.392,40.449,346.72,40.449,343.898z M318.449,363.203
			H59.756c-2.135,0-4.184-0.362-6.104-1.005l135.449-89.538l135.449,89.539C322.631,362.841,320.582,363.203,318.449,363.203z
			 M337.754,343.898c0,2.821-0.623,5.494-1.715,7.912l-133.98-88.566l132.24-100.482c2.232,3.195,3.455,7.017,3.455,11.024V343.898z
			"/>
		<path d="M235.035,172.832c9.395-14.973,8.965-27.529,6.951-35.427c-3.863-15.154-16.777-25.738-31.402-25.738
			c-7.951,0-15.436,3.246-21.488,9.14c-6.049-5.895-13.531-9.14-21.48-9.14c-14.621,0-27.529,10.583-31.395,25.736
			c-2.014,7.897-2.443,20.454,6.945,35.427c8.311,13.257,22.557,25.449,42.336,36.24c1.119,0.61,2.355,0.916,3.592,0.916
			s2.473-0.306,3.592-0.916C212.47,198.28,226.72,186.087,235.035,172.832z M150.756,141.11c2.135-8.369,9.225-14.443,16.859-14.443
			c5.787,0,11.139,3.57,15.064,10.054c1.357,2.244,3.791,3.615,6.414,3.615l0,0c2.623,0,5.055-1.37,6.414-3.613
			c3.93-6.484,9.285-10.056,15.076-10.056c7.641,0,14.734,6.075,16.867,14.444c1.631,6.395,3.5,28.696-38.355,52.779
			C147.252,169.809,149.125,147.506,150.756,141.11z"/>
	</g>

</svg>
