<?xml version='1.0' encoding='iso-8859-1'?>
<svg version="1.1" xmlns="http://www.w3.org/2000/svg" viewBox="0 0 463.003 463.003" xmlns:xlink="http://www.w3.org/1999/xlink" enable-background="new 0 0 463.003 463.003">
  <g fill="#a05fbb">
    <path d="m159.001,95.503c0-4.143-3.357-7.5-7.5-7.5s-7.5,3.357-7.5,7.5v15.997c0,4.143 3.357,7.5 7.5,7.5s7.5-3.357 7.5-7.5v-15.997z"/>
    <path d="m331.675,21.748l-21.089-3.806c0.624-1.813 0.54-3.809-0.272-5.573-0.95-2.067-2.787-3.591-4.994-4.143l-32-8c-3.806-0.954-7.695,1.187-8.935,4.904l-7.259,21.778-25.625,19.219-25.625-19.219-7.259-21.778c-1.239-3.718-5.133-5.858-8.935-4.904l-32,8c-2.207,0.552-4.044,2.075-4.994,4.143-0.812,1.764-0.896,3.76-0.272,5.573l-21.088,3.806c-11.199,2.021-19.327,11.746-19.327,23.126v173.685c0,5.91 3.283,11.223 8.567,13.863l23.433,11.716v3.365c0,4.143 3.357,7.5 7.5,7.5h8.5v200.5c0,4.143 3.357,7.5 7.5,7.5h40c3.844,0 7.064-2.905 7.46-6.729l16.54-159.883 16.54,159.883c0.396,3.823 3.616,6.729 7.46,6.729h40c4.143,0 7.5-3.357 7.5-7.5v-200.5h8.5c4.143,0 7.5-3.357 7.5-7.5v-3.365l23.432-11.715c5.285-2.642 8.568-7.954 8.568-13.864v-173.685c-5.68434e-14-11.38-8.127-21.105-19.326-23.126zm-104.674,39.755c1.333,1 2.917,1.5 4.5,1.5s3.167-0.5 4.5-1.5l12.792-9.594-8.407,25.222c-0.255,0.765-0.385,1.566-0.385,2.372v120.5h-17v-120.5c0-0.806-0.13-1.607-0.385-2.372l-8.407-25.222 12.792,9.594zm-99.724,157.502c-0.17-0.085-0.275-0.256-0.275-0.446v-14.92l17,8.5v15.229l-16.725-8.363zm24.224-83c-4.143,0-7.5,3.357-7.5,7.5v51.863l-17-8.5v-141.994c0-4.116 2.939-7.634 6.99-8.364l25.342-4.573 7.783,15.566-6.323,12.646c-1.853,3.705-0.351,8.21 3.354,10.062 3.706,1.855 8.211,0.351 10.063-3.354l8-16c1.056-2.112 1.056-4.597 0-6.709l-10.999-21.998c-0.111-0.604-0.298-1.173-0.537-1.71l15.909-3.977 21.419,64.256v47.013l-17.792-35.584c-1.852-3.703-6.354-5.205-10.063-3.354-3.704,1.853-5.206,6.357-3.354,10.063l31.208,62.416v46.229c0,17.921-14.579,32.5-32.5,32.5h-16.5v-96.498c0-4.142-3.357-7.499-7.5-7.499zm136.5,311.998h-25.736l-19.653-189.983c-0.601-5.807-5.273-10.02-11.11-10.02s-10.51,4.214-11.11,10.02l-19.653,189.982h-25.736v-193h0.5c23.639,0 43.295-17.36 46.902-40h18.195c3.607,22.64 23.263,40 46.902,40h0.5v193.001zm15.999-208h-16.5c-17.921,0-32.5-14.579-32.5-32.5v-46.229l31.208-62.416c1.853-3.705 0.351-8.21-3.354-10.063-3.707-1.855-8.211-0.352-10.063,3.354l-17.792,35.584v-47.013l21.419-64.256 15.909,3.977c-0.24,0.537-0.427,1.106-0.538,1.71l-10.999,21.998c-1.056,2.112-1.056,4.597 0,6.709l8,16c1.852,3.705 6.357,5.206 10.063,3.354 3.704-1.853 5.206-6.357 3.354-10.062l-6.323-12.646 7.783-15.566 25.343,4.573c4.05,0.73 6.989,4.248 6.989,8.364v141.994l-17,8.5v-51.863c0-4.143-3.357-7.5-7.5-7.5s-7.5,3.357-7.5,7.5v96.497zm31.725-20.997l-16.724,8.362v-15.229l17-8.5v14.92c-5.68434e-14,0.19-0.105,0.361-0.276,0.447z"/>
    <path d="m311.501,119c4.143,0 7.5-3.357 7.5-7.5v-15.997c0-4.143-3.357-7.5-7.5-7.5s-7.5,3.357-7.5,7.5v15.997c0,4.143 3.358,7.5 7.5,7.5z"/>
  </g>
</svg>
