<svg style="position: absolute; width: 0; height: 0; overflow: hidden;" version="1.1" xmlns="http://www.w3.org/2000/svg" xmlns:xlink="http://www.w3.org/1999/xlink">
<defs>
<symbol id="icon-arch" viewBox="0 0 32 32">
<title>arch</title>
<path class="path1" fill="#82d8cf" d="M24.856 6.020c-1.317-1.736-3.146-3.063-5.191-3.78-0.046-0.576-0.292-1.112-0.706-1.525-0.461-0.461-1.073-0.714-1.724-0.714-0.441 0-0.865 0.117-1.235 0.335-0.37-0.218-0.794-0.335-1.235-0.335-0.651 0-1.264 0.254-1.724 0.714-0.413 0.413-0.659 0.949-0.706 1.526-1.568 0.548-3.009 1.451-4.191 2.633-2.098 2.098-3.254 4.888-3.254 7.856v18.58c0 0.382 0.31 0.691 0.691 0.691h2.584c0.382 0 0.691-0.309 0.691-0.691v-18.58c0-1.719 0.622-3.381 1.752-4.68 1.044-1.2 2.451-2.017 3.993-2.324l0.543 0.543-1.046 1.911c-0.183 0.335-0.060 0.755 0.274 0.938 0.105 0.058 0.219 0.085 0.331 0.085 0.244 0 0.481-0.13 0.607-0.36l0.688-1.258 0.688 1.258c0.183 0.335 0.603 0.458 0.938 0.274s0.458-0.603 0.274-0.938l-1.046-1.911 0.543-0.543c1.542 0.308 2.95 1.124 3.993 2.324 1.13 1.299 1.752 2.961 1.752 4.68v18.58c0 0.382 0.31 0.691 0.691 0.691h2.584c0.382 0 0.691-0.309 0.691-0.691v-18.58c-0-2.446-0.78-4.766-2.254-6.709zM24.526 23.68l1.201 0.957v2.61l-1.201-0.957v-2.61zM24.526 21.912v-2.61l1.201 0.957v2.61l-1.201-0.957zM24.526 17.534v-2.61l1.201 0.957v2.61l-1.201-0.957zM24.526 13.156v-0.427c0-0.743-0.098-1.476-0.286-2.184l1.293 0.231c0.129 0.636 0.195 1.289 0.195 1.953v1.384l-1.201-0.957zM14.018 1.692c0.206-0.206 0.476-0.309 0.746-0.309s0.541 0.103 0.747 0.309c0.27 0.27 0.708 0.27 0.978 0 0.411-0.412 1.081-0.412 1.493 0 0.199 0.199 0.309 0.464 0.309 0.747s-0.11 0.547-0.309 0.747l-1.982 1.982-1.982-1.982c-0.199-0.199-0.309-0.465-0.309-0.747s0.11-0.547 0.309-0.746zM7.474 26.29l-1.202 0.957v-2.61l1.202-0.957v2.61zM7.474 21.912l-1.202 0.957v-2.61l1.202-0.957v2.61zM7.474 17.534l-1.202 0.957v-2.61l1.202-0.957v2.61zM7.474 12.729v0.427l-1.202 0.957v-1.384c0-0.667 0.067-1.323 0.197-1.962l1.292-0.23c-0.19 0.71-0.288 1.447-0.288 2.193zM6.273 30.617v-1.603l1.202-0.957v2.56h-1.202zM8.32 9.032l-1.422 0.254c0.409-1.082 1.012-2.087 1.792-2.973l0.923 0.776c-0.015 0.018-0.031 0.035-0.047 0.052-0.501 0.577-0.919 1.213-1.246 1.891zM10.615 6.125l-0.936-0.787c0.873-0.746 1.872-1.335 2.944-1.733 0.11 0.202 0.25 0.39 0.418 0.557l0.426 0.426c-1.038 0.324-2.007 0.846-2.852 1.536zM18.96 4.163c0.167-0.167 0.307-0.354 0.417-0.556 1.062 0.395 2.053 0.978 2.919 1.713l-0.934 0.786c-0.84-0.68-1.8-1.196-2.828-1.517l0.426-0.426zM22.367 7.066l0.922-0.776c0.162 0.182 0.317 0.37 0.465 0.565 0.572 0.755 1.025 1.574 1.352 2.44l-1.421-0.254c-0.328-0.681-0.747-1.321-1.25-1.9-0.022-0.025-0.045-0.050-0.067-0.075zM24.526 30.617v-2.56l1.201 0.957v1.603h-1.201z"></path>
</symbol>
<symbol id="icon-bouquet" viewBox="0 0 32 32">
<title>bouquet</title>
<path class="path1" fill="#e63125" d="M27.929 11.206c-0.115-0.251-0.366-0.412-0.642-0.412h-0.172c0.519-1.056 0.223-2.345-0.729-3.065-0.001-0.001-0.003-0.002-0.005-0.004-0.305-0.233-0.462-0.613-0.409-0.997 0.172-1.244-0.615-2.421-1.832-2.736-0.374-0.097-0.666-0.389-0.764-0.765-0.316-1.216-1.492-2.003-2.74-1.83-0.381 0.053-0.763-0.105-0.991-0.407-0.001-0.002-0.004-0.006-0.006-0.007-0.758-1.003-2.147-1.278-3.23-0.641-0.333 0.196-0.747 0.196-1.080 0-1.084-0.637-2.472-0.362-3.232 0.643-0.232 0.307-0.614 0.466-0.989 0.413-0.002-0-0.007-0.001-0.009-0.001-1.245-0.172-2.421 0.615-2.736 1.832-0.097 0.372-0.387 0.664-0.759 0.762-0.002 0-0.004 0.001-0.005 0.001-1.216 0.316-2.003 1.492-1.83 2.74 0.053 0.382-0.105 0.763-0.415 0.997-0.954 0.722-1.249 2.014-0.726 3.071-0.241 0.030-0.452 0.181-0.555 0.406-0.115 0.251-0.073 0.546 0.107 0.755l9.687 11.221v6.684c0 1.177 0.957 2.134 2.134 2.134s2.134-0.957 2.134-2.134v-6.684l9.687-11.221c0.18-0.209 0.222-0.504 0.107-0.755zM6.206 8.853c0.714-0.54 1.082-1.427 0.959-2.318-0.074-0.534 0.263-1.039 0.783-1.176 0.002-0 0.003-0.001 0.005-0.001 0.869-0.226 1.549-0.906 1.775-1.776 0.136-0.523 0.641-0.861 1.171-0.788 0.002 0 0.007 0.001 0.010 0.001 0.887 0.122 1.774-0.245 2.316-0.961 0.326-0.431 0.923-0.55 1.389-0.276 0.774 0.456 1.737 0.456 2.511 0 0.466-0.274 1.063-0.156 1.385 0.27 0.001 0.002 0.004 0.006 0.006 0.007 0.54 0.714 1.427 1.082 2.318 0.959 0.535-0.074 1.041 0.264 1.177 0.789 0.226 0.869 0.906 1.549 1.776 1.775 0.523 0.136 0.861 0.642 0.787 1.18-0.123 0.887 0.245 1.774 0.959 2.314 0.001 0.001 0.003 0.002 0.005 0.004 0.429 0.327 0.546 0.922 0.273 1.387l-0.324 0.55h-5.068c0.394-0.982 0.601-2.036 0.601-3.104 0-0.39-0.316-0.706-0.706-0.706-1.846 0-3.593 0.592-5.053 1.712-0.587 0.449-1.105 0.968-1.55 1.549-0.344-0.426-0.737-0.81-1.177-1.146-1.221-0.936-2.681-1.431-4.224-1.431-0.39 0-0.706 0.316-0.706 0.706 0 0.83 0.149 1.65 0.434 2.421h-1.787l-0.324-0.55c-0.274-0.466-0.156-1.063 0.277-1.391zM9.572 10.794c-0.255-0.524-0.426-1.086-0.506-1.664 0.948 0.128 1.838 0.499 2.608 1.089 0.23 0.176 0.443 0.368 0.641 0.575h-2.744zM18.872 10.794h-3.789c0.309-0.359 0.654-0.686 1.036-0.978 1.013-0.777 2.194-1.248 3.449-1.382-0.089 0.823-0.325 1.623-0.696 2.359zM6.254 12.205h14.86l-4.638 10.009h-1.582l-8.64-10.009zM15.277 26.304h1.446v1.268h-1.446v-1.268zM15.277 24.893v-1.268h1.446v1.268h-1.446zM16 30.589c-0.399 0-0.723-0.324-0.723-0.723v-0.882h1.446v0.882c0 0.399-0.324 0.723-0.723 0.723zM19.105 19.897l3.564-7.692h3.076l-6.641 7.692z"></path>
</symbol>
<symbol id="icon-butterfly" viewBox="0 0 32 32">
<title>butterfly</title>
<path class="path1" fill="#a05fbb" d="M30.844 8.61c-0.157-0.49-0.522-0.877-1.002-1.062s-1.009-0.144-1.454 0.113l-9.474 5.469c-0.275-0.204-0.614-0.325-0.982-0.325h-3.865c-0.368 0-0.707 0.121-0.982 0.325l-9.474-5.469c-0.445-0.257-0.975-0.298-1.454-0.113s-0.845 0.572-1.002 1.062c-0.767 2.39-1.156 4.877-1.156 7.39s0.389 4.999 1.156 7.39c0.157 0.49 0.522 0.877 1.002 1.062 0.198 0.076 0.405 0.114 0.61 0.114 0.292 0 0.583-0.076 0.844-0.227l9.474-5.469c0.275 0.204 0.614 0.325 0.982 0.325h3.865c0.367 0 0.707-0.121 0.982-0.325l9.474 5.469c0.261 0.151 0.552 0.227 0.844 0.227 0.206 0 0.412-0.038 0.61-0.114 0.48-0.185 0.845-0.572 1.002-1.062 0.767-2.391 1.156-4.877 1.156-7.39s-0.389-4.999-1.156-7.39zM2.911 23.124c-0.104 0.060-0.2 0.038-0.248 0.019s-0.135-0.067-0.172-0.182c-0.722-2.252-1.089-4.594-1.089-6.961s0.366-4.71 1.089-6.961c0.037-0.115 0.123-0.163 0.172-0.182s0.144-0.041 0.248 0.019l9.509 5.489c-0.002 0.030-0.003 0.061-0.003 0.091v0.618l-6.357-1.784c-0.373-0.105-0.76 0.113-0.864 0.486s0.113 0.76 0.486 0.864l4.842 1.359-4.842 1.359c-0.373 0.105-0.59 0.492-0.486 0.864 0.087 0.309 0.368 0.512 0.675 0.512 0.063 0 0.126-0.008 0.19-0.026l6.357-1.784v0.619c0 0.031 0.001 0.061 0.003 0.092l-9.509 5.49zM18.181 17.543c0 0.137-0.111 0.248-0.248 0.248h-3.865c-0.137 0-0.248-0.111-0.248-0.248v-3.087c0-0.137 0.111-0.248 0.248-0.248h3.865c0.137 0 0.248 0.111 0.248 0.248v3.087zM29.509 22.961c-0.037 0.115-0.123 0.163-0.172 0.182s-0.144 0.041-0.248-0.019l-9.509-5.49c0.002-0.030 0.003-0.061 0.003-0.091v-0.619l6.357 1.784c0.063 0.018 0.127 0.026 0.19 0.026 0.306 0 0.588-0.202 0.675-0.512 0.105-0.373-0.113-0.76-0.486-0.864l-4.842-1.359 4.842-1.359c0.373-0.105 0.59-0.492 0.486-0.864s-0.491-0.59-0.864-0.486l-6.357 1.784v-0.618c0-0.031-0.001-0.061-0.003-0.091l9.509-5.49c0.104-0.060 0.2-0.038 0.248-0.019s0.135 0.067 0.172 0.182c0.722 2.252 1.089 4.594 1.089 6.961s-0.366 4.709-1.089 6.961z"></path>
</symbol>
<symbol id="icon-evelope" viewBox="0 0 32 32">
<title>evelope</title>
<path class="path1" d="M29.333 26.667h-26.667c-1.471 0-2.667-1.196-2.667-2.667v-16c0-1.471 1.196-2.667 2.667-2.667h26.667c1.471 0 2.667 1.196 2.667 2.667v16c0 1.471-1.196 2.667-2.667 2.667zM2.667 6.667c-0.735 0-1.333 0.598-1.333 1.333v16c0 0.735 0.598 1.333 1.333 1.333h26.667c0.735 0 1.333-0.598 1.333-1.333v-16c0-0.735-0.598-1.333-1.333-1.333h-26.667z"></path>
<path class="path2" d="M16 19.461l-11.695-7.567c-0.309-0.201-0.398-0.613-0.198-0.922s0.613-0.397 0.922-0.198l10.971 7.099 10.971-7.099c0.309-0.199 0.722-0.111 0.922 0.198s0.111 0.721-0.198 0.922l-11.695 7.567z"></path>
<path class="path3" d="M4.001 22.667c-0.215 0-0.427-0.104-0.555-0.297-0.205-0.307-0.122-0.72 0.185-0.925l6-4c0.307-0.205 0.721-0.122 0.925 0.185s0.122 0.72-0.185 0.925l-6 4c-0.114 0.075-0.243 0.112-0.369 0.112z"></path>
<path class="path4" d="M27.999 22.667c-0.127 0-0.255-0.037-0.369-0.112l-6-4c-0.307-0.205-0.389-0.618-0.185-0.925s0.617-0.389 0.925-0.185l6 4c0.307 0.205 0.389 0.618 0.185 0.925-0.128 0.193-0.34 0.297-0.555 0.297z"></path>
</symbol>
<symbol id="icon-evelope-white" viewBox="0 0 32 32">
<title>evelope-white</title>
<path class="path1" fill="#fff" d="M29.333 26.667h-26.667c-1.471 0-2.667-1.196-2.667-2.667v-16c0-1.471 1.196-2.667 2.667-2.667h26.667c1.471 0 2.667 1.196 2.667 2.667v16c0 1.471-1.196 2.667-2.667 2.667zM2.667 6.667c-0.735 0-1.333 0.598-1.333 1.333v16c0 0.735 0.598 1.333 1.333 1.333h26.667c0.735 0 1.333-0.598 1.333-1.333v-16c0-0.735-0.598-1.333-1.333-1.333h-26.667z"></path>
<path class="path2" fill="#fff" d="M16 19.461l-11.695-7.567c-0.309-0.201-0.398-0.613-0.198-0.922s0.613-0.397 0.922-0.198l10.971 7.099 10.971-7.099c0.309-0.199 0.722-0.111 0.922 0.198s0.111 0.721-0.198 0.922l-11.695 7.567z"></path>
<path class="path3" fill="#fff" d="M4.001 22.667c-0.215 0-0.427-0.104-0.555-0.297-0.205-0.307-0.122-0.72 0.185-0.925l6-4c0.307-0.205 0.721-0.122 0.925 0.185s0.122 0.72-0.185 0.925l-6 4c-0.114 0.075-0.243 0.112-0.369 0.112z"></path>
<path class="path4" fill="#fff" d="M27.999 22.667c-0.127 0-0.255-0.037-0.369-0.112l-6-4c-0.307-0.205-0.389-0.618-0.185-0.925s0.617-0.389 0.925-0.185l6 4c0.307 0.205 0.389 0.618 0.185 0.925-0.128 0.193-0.34 0.297-0.555 0.297z"></path>
</symbol>
<symbol id="icon-gift" viewBox="0 0 32 32">
<title>gift</title>
<path class="path1" fill="#e63125" d="M11.49 24.466l3.986 3.986c0.139 0.139 0.328 0.217 0.524 0.217s0.385-0.078 0.524-0.217l3.986-3.986c0.672-0.672 1.043-1.566 1.043-2.517s-0.37-1.845-1.043-2.517c-0.672-0.672-1.566-1.043-2.517-1.043-0.721 0-1.41 0.213-1.993 0.609-1.384-0.935-3.285-0.791-4.509 0.433-0.672 0.672-1.043 1.566-1.043 2.517s0.37 1.845 1.043 2.517zM12.539 20.481c0.405-0.405 0.937-0.607 1.469-0.607s1.064 0.202 1.469 0.607c0.29 0.29 0.759 0.29 1.049 0 0.81-0.81 2.127-0.81 2.937 0 0.392 0.392 0.608 0.914 0.608 1.469s-0.216 1.076-0.608 1.469l-3.461 3.461-3.461-3.461c-0.392-0.392-0.608-0.914-0.608-1.469s0.216-1.076 0.608-1.469z"></path>
<path class="path2" fill="#e63125" d="M30.201 10.336h-3.527c-0.339-0.384-0.711-0.728-1.112-1.030 0.497-1.153 0.69-2.412 0.558-3.681-0.036-0.349-0.312-0.624-0.66-0.661-0.457-0.048-0.915-0.052-1.37-0.015 0.028-0.419 0.021-0.843-0.024-1.27-0.036-0.349-0.312-0.624-0.66-0.66-0.684-0.071-1.365-0.047-2.025 0.066-0.068-0.599-0.209-1.188-0.424-1.759-0.123-0.328-0.459-0.525-0.806-0.473-0.805 0.123-1.594 0.383-2.317 0.76-0.383-0.535-0.841-1.023-1.367-1.449-0.272-0.221-0.662-0.221-0.934 0-0.526 0.427-0.984 0.914-1.367 1.449-0.723-0.378-1.511-0.638-2.317-0.76-0.346-0.053-0.683 0.144-0.806 0.473-0.214 0.571-0.355 1.16-0.424 1.759-0.66-0.113-1.34-0.137-2.024-0.066-0.349 0.036-0.624 0.312-0.66 0.66-0.045 0.426-0.052 0.851-0.024 1.27-0.455-0.037-0.913-0.033-1.371 0.015-0.348 0.037-0.624 0.312-0.66 0.66-0.133 1.268 0.060 2.527 0.558 3.681-0.401 0.301-0.773 0.645-1.112 1.029h-3.526c-0.409 0-0.741 0.332-0.741 0.741v4.723c0 0.409 0.332 0.741 0.741 0.741h0.948v14.717c0 0.41 0.332 0.741 0.741 0.741h25.023c0.41 0 0.741-0.332 0.741-0.741v-14.717h0.948c0.41 0 0.741-0.332 0.741-0.741v-4.723c0-0.409-0.332-0.741-0.741-0.741zM21.948 9.661c0.080-0.080 0.157-0.161 0.232-0.244 0.821 0.144 1.591 0.457 2.271 0.919h-3.279c0.271-0.205 0.531-0.43 0.775-0.675zM24.677 6.408c-0.001 0.732-0.136 1.451-0.401 2.127-0.367-0.172-0.749-0.313-1.143-0.423 0.297-0.518 0.529-1.069 0.692-1.641 0.282-0.042 0.567-0.063 0.852-0.064zM22.622 4.463c-0.002 1.553-0.612 3.039-1.724 4.15-0.869 0.87-1.968 1.431-3.149 1.635l2.302-2.545c0.275-0.304 0.251-0.772-0.052-1.047s-0.773-0.251-1.047 0.052l-2.038 2.253c0.251-1.038 0.782-1.998 1.558-2.775 1.111-1.111 2.596-1.722 4.15-1.723zM19.758 2.448c0.089 0.343 0.146 0.691 0.172 1.043-0.339 0.134-0.668 0.293-0.985 0.477-0.098-0.366-0.223-0.721-0.375-1.065 0.378-0.193 0.778-0.347 1.189-0.455zM16 1.738c0.871 0.871 1.439 1.98 1.637 3.197-0.072 0.066-0.143 0.134-0.212 0.203-0.592 0.592-1.070 1.268-1.424 1.999-0.355-0.731-0.833-1.408-1.424-1.999 0 0 0 0 0 0-0.070-0.070-0.141-0.137-0.213-0.203 0.198-1.217 0.766-2.325 1.637-3.196zM12.241 2.449c0.411 0.109 0.811 0.263 1.188 0.456-0.152 0.343-0.277 0.699-0.375 1.064-0.317-0.184-0.646-0.343-0.985-0.477 0.026-0.352 0.083-0.701 0.172-1.043zM13.527 6.186c0.777 0.777 1.308 1.737 1.559 2.775l-2.038-2.253c-0.275-0.304-0.744-0.327-1.047-0.052s-0.327 0.744-0.052 1.047l2.302 2.545c-1.181-0.205-2.28-0.766-3.149-1.635-1.111-1.111-1.722-2.596-1.723-4.15 1.553 0.002 3.039 0.612 4.15 1.724zM7.322 6.408c0.285 0.001 0.57 0.022 0.852 0.064 0.163 0.572 0.395 1.123 0.692 1.641-0.394 0.109-0.776 0.251-1.144 0.423-0.264-0.677-0.4-1.396-0.4-2.127zM9.819 9.417c0.076 0.083 0.153 0.164 0.232 0.244 0.245 0.245 0.504 0.469 0.775 0.675h-3.279c0.679-0.462 1.45-0.775 2.271-0.919zM27.77 30.517h-23.54v-13.976h23.54v13.976zM29.459 15.058h-26.919v-3.24h26.919v3.24z"></path>
</symbol>
<symbol id="icon-list" viewBox="0 0 32 32">
<title>guest-list</title>
<path class="path1" fill="#5788bb" d="M26 3.333h-5.418c-0.271-1.048-1.165-1.849-2.262-1.981-0.467-0.824-1.35-1.352-2.32-1.352s-1.853 0.528-2.32 1.352c-1.097 0.132-1.991 0.932-2.262 1.981h-5.418c-1.103 0-2 0.897-2 2v24.667c0 1.103 0.897 2 2 2h20c1.103 0 2-0.897 2-2v-24.667c0-1.103-0.897-2-2-2zM14 2.667h0.114c0.283 0 0.534-0.178 0.629-0.444 0.188-0.532 0.693-0.889 1.257-0.889s1.069 0.357 1.257 0.889c0.094 0.266 0.346 0.444 0.629 0.444h0.114c0.735 0 1.333 0.598 1.333 1.333s-0.598 1.333-1.333 1.333h-4c-0.735 0-1.333-0.598-1.333-1.333s0.598-1.333 1.333-1.333zM8.667 4.667h2.751c0.297 1.149 1.342 2 2.582 2h4c1.24 0 2.286-0.851 2.582-2h2.751v22.667h-14.667v-22.667zM26.667 30c0 0.368-0.299 0.667-0.667 0.667h-20c-0.368 0-0.667-0.299-0.667-0.667v-24.667c0-0.368 0.299-0.667 0.667-0.667h1.333v22.667c0 0.735 0.598 1.333 1.333 1.333h14.667c0.735 0 1.333-0.598 1.333-1.333v-22.667h1.333c0.368 0 0.667 0.299 0.667 0.667v24.667z"></path>
<path class="path2" fill="#5788bb" d="M13.333 10.667h5.333c0.368 0 0.667-0.299 0.667-0.667s-0.299-0.667-0.667-0.667h-5.333c-0.368 0-0.667 0.299-0.667 0.667s0.299 0.667 0.667 0.667z"></path>
<path class="path3" fill="#5788bb" d="M18.667 16h-5.333c-0.368 0-0.667 0.299-0.667 0.667s0.299 0.667 0.667 0.667h5.333c0.368 0 0.667-0.299 0.667-0.667s-0.299-0.667-0.667-0.667z"></path>
<path class="path4" fill="#5788bb" d="M17.2 20c-0.435 0-0.854 0.14-1.2 0.386-0.346-0.246-0.765-0.386-1.2-0.386-1.14 0-2.067 0.927-2.067 2.067 0 0.58 0.255 1.125 0.701 1.496l1.785 1.488c0.219 0.182 0.496 0.283 0.78 0.283s0.562-0.1 0.78-0.283l1.785-1.488c0.445-0.371 0.701-0.917 0.701-1.496 0-1.14-0.927-2.067-2.067-2.067zM17.712 22.539l-1.712 1.427-1.712-1.427c-0.14-0.117-0.221-0.289-0.221-0.472 0-0.404 0.329-0.733 0.733-0.733 0.26 0 0.495 0.133 0.629 0.356 0.121 0.2 0.337 0.323 0.571 0.323s0.45-0.122 0.571-0.323c0.134-0.223 0.369-0.356 0.629-0.356 0.404 0 0.733 0.329 0.733 0.733 0 0.183-0.081 0.355-0.221 0.472z"></path>
<path class="path5" fill="#5788bb" d="M20.667 12.667h-9.333c-0.368 0-0.667 0.299-0.667 0.667s0.299 0.667 0.667 0.667h9.333c0.368 0 0.667-0.299 0.667-0.667s-0.299-0.667-0.667-0.667z"></path>
</symbol>
<symbol id="icon-rings" viewBox="0 0 32 32">
<title>rings</title>
<path class="path1" fill="#eb974e" d="M9.76 27.81c1.946 0 3.805-0.566 5.389-1.619-0.215-0.188-0.424-0.386-0.629-0.594-0.462-0.473-0.876-0.983-1.24-1.522-1.035 0.608-2.238 0.955-3.523 0.955-3.846 0-6.977-3.13-6.977-6.977 0-2.96 1.855-5.497 4.461-6.508l-2.012-2.14c-0.865 0.452-1.664 1.039-2.373 1.748-1.841 1.841-2.856 4.291-2.856 6.897s1.015 5.055 2.856 6.897c1.845 1.848 4.298 2.863 6.904 2.863z"></path>
<path class="path2" fill="#eb974e" d="M18.665 12.070c1.049-0.629 2.272-0.994 3.582-0.994 3.846 0 6.977 3.13 6.977 6.977s-3.131 6.977-6.977 6.977c-1.758 0-3.499-0.691-4.781-1.897-1.386-1.306-2.196-3.176-2.196-5.080 0-0.608 0.080-1.202 0.226-1.765-0.153-0.5-0.372-0.976-0.65-1.425-0.334-0.528-0.743-1.001-1.216-1.4-0.743 1.397-1.14 2.96-1.14 4.586 0 2.811 1.254 5.556 3.388 7.39 1.689 1.456 3.888 2.304 6.115 2.363 0.083 0.003 0.167 0.003 0.254 0.003 2.606 0 5.055-1.015 6.897-2.856s2.856-4.291 2.856-6.897-1.015-5.055-2.856-6.897-4.291-2.856-6.897-2.856c-1.97 0-3.85 0.58-5.448 1.661 0.709 0.611 1.338 1.324 1.866 2.109z"></path>
<path class="path3" fill="#eb974e" d="M15.611 10.253c-0.417-0.316-0.862-0.601-1.331-0.844l-2.005 2.137c0.059 0.024 0.122 0.049 0.181 0.073 1.47 0.618 2.71 1.744 3.461 3.151 0.806 1.511 1.028 3.315 0.615 4.975l0.219 0.539c0.361 0.886 0.938 1.675 1.661 2.293 0.577-1.098 0.935-2.297 1.060-3.547 0.031-0.323 0.049-0.65 0.049-0.973-0.003-3.051-1.504-5.976-3.909-7.804z"></path>
<path class="path4" fill="#eb974e" d="M9.124 12.126c0.17 0.181 0.403 0.274 0.632 0.274s0.462-0.090 0.632-0.274l4.333-4.604c0.271-0.288 0.313-0.726 0.101-1.060l-1.188-1.869c-0.16-0.25-0.434-0.403-0.733-0.403h-6.282c-0.295 0-0.573 0.153-0.733 0.403l-1.188 1.869c-0.212 0.334-0.174 0.771 0.101 1.060l4.326 4.604z"></path>
</symbol>
<symbol id="icon-mic" viewBox="0 0 32 32">
<title>microphone</title>
<path class="path1" fill="#e17a92" d="M8.959 13.7v-5.063c0-3.883 3.159-7.041 7.041-7.041 0.706 0 1.403 0.105 2.074 0.314 0 0 0 0 0.001 0 0.589 0.183 1.154 0.444 1.678 0.777 2.059 1.306 3.288 3.53 3.288 5.951v5.004c0 0.365-0.296 0.66-0.66 0.66s-0.66-0.296-0.66-0.66v-5.004c0-1.966-1-3.774-2.675-4.836-0.426-0.27-0.885-0.482-1.363-0.631-0 0-0-0-0-0-0.544-0.169-1.11-0.254-1.683-0.254-3.154 0-5.721 2.566-5.721 5.721v5.063c0 0.365-0.296 0.66-0.66 0.66s-0.66-0.296-0.66-0.66zM20.265 1.241c1.342 0.728 2.454 1.813 3.217 3.137 0.708 1.231 1.083 2.631 1.083 4.051 0 0.365 0.296 0.66 0.66 0.66s0.66-0.296 0.66-0.66c0-1.65-0.435-3.279-1.259-4.71-0.884-1.536-2.175-2.795-3.731-3.639-0.32-0.174-0.721-0.055-0.895 0.265s-0.055 0.721 0.265 0.895zM18.675 10.138h-5.349c-0.365 0-0.66 0.296-0.66 0.66s0.296 0.66 0.66 0.66h5.349c0.365 0 0.66-0.296 0.66-0.66s-0.296-0.66-0.66-0.66zM16.66 27.209v3.471h3.183c0.365 0 0.66 0.296 0.66 0.66s-0.296 0.66-0.66 0.66h-3.829c-0.005 0-0.009 0-0.014 0s-0.009-0-0.014-0h-3.829c-0.365 0-0.66-0.296-0.66-0.66s0.296-0.66 0.66-0.66h3.183v-3.471c-5.528-0.342-9.921-4.948-9.921-10.56 0-0.365 0.296-0.66 0.66-0.66h19.841c0.365 0 0.66 0.296 0.66 0.66 0 5.613-4.392 10.219-9.921 10.56zM25.237 17.309h-2.229c-0.159 1.649-0.893 3.18-2.097 4.355-1.326 1.294-3.070 2.006-4.911 2.006-2.666 0-5.15-1.556-6.329-3.964-0.16-0.328-0.025-0.723 0.303-0.883s0.723-0.025 0.883 0.303c0.959 1.958 2.977 3.224 5.143 3.224 2.894 0 5.338-2.217 5.68-5.041h-14.917c0.34 4.799 4.353 8.6 9.237 8.6s8.898-3.801 9.237-8.6zM18.675 13.040h-5.349c-0.365 0-0.66 0.296-0.66 0.66s0.296 0.66 0.66 0.66h5.349c0.365 0 0.66-0.296 0.66-0.66s-0.296-0.66-0.66-0.66zM18.675 7.236h-5.349c-0.365 0-0.66 0.296-0.66 0.66s0.296 0.66 0.66 0.66h5.349c0.365 0 0.66-0.296 0.66-0.66s-0.296-0.66-0.66-0.66z"></path>
</symbol>
<symbol id="icon-muffin" viewBox="0 0 32 32">
<title>muffin</title>
<path class="path1" fill="#bc7e62" d="M28.001 21.407c-0.222-0.162-0.519-0.176-0.756-0.036l-0.392 0.233c-1.021-1.76-2.456-3.252-4.187-4.34-1.123-0.706-2.345-1.225-3.621-1.543v-9.223l2.302-2.302c0.958-0.958 0.958-2.517-0-3.476-0.809-0.809-2.047-0.935-2.989-0.378-0.375-0.223-0.805-0.342-1.253-0.342-0.656 0-1.274 0.256-1.738 0.72-0.958 0.958-0.958 2.517 0 3.475l2.302 2.302v8.961c-0.551-0.074-1.108-0.112-1.67-0.112s-1.119 0.038-1.67 0.112v-3.885l2.302-2.302c0.464-0.464 0.72-1.081 0.72-1.738s-0.256-1.274-0.72-1.738c-0.464-0.464-1.081-0.72-1.738-0.72-0.448 0-0.877 0.119-1.252 0.342-0.375-0.223-0.804-0.342-1.252-0.342-0.656 0-1.274 0.256-1.738 0.72s-0.72 1.081-0.72 1.738 0.256 1.274 0.72 1.738l2.302 2.302v4.146c-1.276 0.318-2.498 0.837-3.621 1.543-1.731 1.088-3.167 2.58-4.188 4.34l-0.393-0.233c-0.237-0.14-0.534-0.126-0.756 0.036s-0.326 0.441-0.264 0.709l1.784 7.745c0.29 1.26 1.396 2.139 2.688 2.139h15.586c1.293 0 2.398-0.88 2.688-2.139l1.784-7.745c0.062-0.268-0.042-0.547-0.264-0.709zM16.339 1.692c0.205-0.205 0.477-0.317 0.766-0.317s0.561 0.113 0.766 0.317c0.268 0.268 0.703 0.268 0.972 0 0.422-0.422 1.109-0.422 1.532 0s0.422 1.11 0 1.532l-2.018 2.018-2.018-2.018c-0.422-0.422-0.422-1.11 0-1.532zM11.308 7.534c0-0.289 0.113-0.561 0.317-0.766s0.477-0.317 0.766-0.317c0.289 0 0.561 0.113 0.766 0.317 0.268 0.268 0.703 0.268 0.972 0 0.205-0.205 0.477-0.317 0.766-0.317s0.561 0.113 0.766 0.317c0.205 0.205 0.317 0.477 0.317 0.766s-0.113 0.561-0.317 0.766l-2.018 2.018-2.018-2.018c-0.205-0.205-0.317-0.477-0.317-0.766zM23.181 30.626h-2.515l0.658-6.897 1.633-0.968 1.539 0.912-1.315 6.953zM7.504 23.672l1.538-0.912 1.634 0.968 0.659 6.897h-2.516l-1.315-6.954zM12.056 23.723l1.624-0.962 1.632 0.967v6.898h-2.596l-0.659-6.903zM16.686 23.727l1.632-0.967 1.625 0.963-0.658 6.902h-2.598v-6.898zM10.066 18.427c1.775-1.116 3.827-1.705 5.934-1.705s4.159 0.59 5.934 1.705c1.546 0.972 2.827 2.304 3.736 3.877l-0.394 0.234-1.969-1.167c-0.216-0.128-0.485-0.128-0.701 0l-1.969 1.167-1.969-1.167c-0.216-0.128-0.485-0.128-0.701 0l-1.969 1.167-1.969-1.167c-0.216-0.128-0.485-0.128-0.701 0l-1.969 1.167-1.968-1.167c-0.216-0.128-0.485-0.128-0.701 0l-1.969 1.167-0.394-0.233c0.909-1.573 2.19-2.905 3.736-3.877zM6.858 29.552l-1.424-6.182 0.692 0.41 1.24 6.562c-0.249-0.19-0.433-0.464-0.508-0.79zM25.142 29.552c-0.075 0.326-0.259 0.6-0.509 0.79l1.241-6.562 0.691-0.41-1.424 6.182z"></path>
<path class="path2" fill="#bc7e62" d="M12.776 19.1c0 0.381-0.309 0.689-0.689 0.689s-0.689-0.308-0.689-0.689c0-0.381 0.309-0.689 0.689-0.689s0.689 0.308 0.689 0.689z"></path>
<path class="path3" fill="#bc7e62" d="M16.625 20.062c0 0.381-0.308 0.689-0.689 0.689s-0.689-0.308-0.689-0.689c0-0.381 0.309-0.689 0.689-0.689s0.689 0.308 0.689 0.689z"></path>
<path class="path4" fill="#bc7e62" d="M20.61 18.687c0 0.381-0.308 0.689-0.689 0.689s-0.689-0.308-0.689-0.689c0-0.381 0.308-0.689 0.689-0.689s0.689 0.308 0.689 0.689z"></path>
</symbol>
<symbol id="icon-phone-ringing" viewBox="0 0 32 32">
<title>phone-ringing</title>
<path class="path1" d="M5.13 8.563l8.17 20.348c0.352 0.876 1.346 1.302 2.223 0.949l10.667-4.283c0.876-0.352 1.301-1.347 0.95-2.223l-8.17-20.348c-0.352-0.876-1.347-1.301-2.224-0.95l-10.667 4.283c-0.876 0.352-1.3 1.347-0.948 2.224zM20.441 26.761c-0.552 0.222-1.179-0.045-1.401-0.597-0.221-0.551 0.046-1.178 0.599-1.4 0.551-0.221 1.178 0.046 1.399 0.598s-0.046 1.178-0.597 1.399zM8.121 8.56l8.684-3.486c0.241-0.097 0.515 0.019 0.613 0.261l6.289 15.665c0.097 0.241-0.020 0.516-0.262 0.612l-8.684 3.486c-0.242 0.096-0.516-0.020-0.612-0.262l-6.289-15.665c-0.098-0.241 0.019-0.515 0.26-0.612z"></path>
<path class="path2" d="M7.182 4.645c-0.006-0.057-0.018-0.112-0.040-0.166-0.097-0.241-0.346-0.392-0.606-0.367-2.516 0.245-4.364 2.489-4.121 5.006 0.031 0.316 0.33 0.562 0.647 0.531 0.157-0.015 0.3-0.091 0.4-0.213 0.101-0.123 0.147-0.277 0.132-0.434-0.087-0.901 0.182-1.787 0.759-2.488 0.579-0.703 1.394-1.138 2.296-1.224 0.324-0.031 0.563-0.32 0.533-0.646z"></path>
<path class="path3" d="M6.301 2.967c0.324-0.032 0.563-0.321 0.531-0.645-0.005-0.057-0.018-0.112-0.039-0.165-0.097-0.242-0.345-0.392-0.606-0.367-1.818 0.176-3.459 1.051-4.623 2.466-1.163 1.414-1.708 3.194-1.531 5.013 0.033 0.315 0.331 0.56 0.645 0.53 0.157-0.015 0.3-0.090 0.4-0.212 0.101-0.122 0.148-0.276 0.133-0.434-0.301-3.11 1.982-5.885 5.092-6.187z"></path>
<path class="path4" d="M25.391 27.514c0.013 0.056 0.034 0.108 0.064 0.158 0.131 0.224 0.399 0.337 0.653 0.276 2.454-0.605 3.96-3.092 3.355-5.548-0.076-0.308-0.407-0.508-0.717-0.432-0.153 0.038-0.283 0.134-0.365 0.268-0.083 0.137-0.105 0.296-0.068 0.449 0.216 0.879 0.078 1.794-0.393 2.572s-1.215 1.327-2.095 1.543c-0.317 0.078-0.511 0.398-0.434 0.715z"></path>
<path class="path5" d="M31.085 21.476c-0.154 0.038-0.283 0.133-0.366 0.268-0.081 0.136-0.107 0.294-0.069 0.449 0.748 3.033-1.112 6.108-4.145 6.855-0.316 0.079-0.51 0.399-0.433 0.716 0.012 0.056 0.033 0.107 0.062 0.157 0.131 0.224 0.4 0.338 0.654 0.276 1.773-0.437 3.271-1.539 4.219-3.107 0.947-1.567 1.229-3.406 0.792-5.182-0.077-0.306-0.408-0.506-0.714-0.431z"></path>
</symbol>
<symbol id="icon-phone-white" viewBox="0 0 32 32">
<title>phone-white</title>
<path class="path1" fill="#fff" d="M5.13 8.563l8.17 20.348c0.352 0.876 1.346 1.302 2.223 0.949l10.667-4.283c0.876-0.352 1.301-1.347 0.95-2.223l-8.17-20.348c-0.352-0.876-1.347-1.301-2.224-0.95l-10.667 4.283c-0.876 0.352-1.3 1.347-0.948 2.224zM20.441 26.761c-0.552 0.222-1.179-0.045-1.401-0.597-0.221-0.551 0.046-1.178 0.599-1.4 0.551-0.221 1.178 0.046 1.399 0.598s-0.046 1.178-0.597 1.399zM8.121 8.56l8.684-3.486c0.241-0.097 0.515 0.019 0.613 0.261l6.289 15.665c0.097 0.241-0.020 0.516-0.262 0.612l-8.684 3.486c-0.242 0.096-0.516-0.020-0.612-0.262l-6.289-15.665c-0.098-0.241 0.019-0.515 0.26-0.612z"></path>
<path class="path2" fill="#fff" d="M7.182 4.645c-0.006-0.057-0.018-0.112-0.040-0.166-0.097-0.241-0.346-0.392-0.606-0.367-2.516 0.245-4.364 2.489-4.121 5.006 0.031 0.316 0.33 0.562 0.647 0.531 0.157-0.015 0.3-0.091 0.4-0.213 0.101-0.123 0.147-0.277 0.132-0.434-0.087-0.901 0.182-1.787 0.759-2.488 0.579-0.703 1.394-1.138 2.296-1.224 0.324-0.031 0.563-0.32 0.533-0.646z"></path>
<path class="path3" fill="#fff" d="M6.301 2.967c0.324-0.032 0.563-0.321 0.531-0.645-0.005-0.057-0.018-0.112-0.039-0.165-0.097-0.242-0.345-0.392-0.606-0.367-1.818 0.176-3.459 1.051-4.623 2.466-1.163 1.414-1.708 3.194-1.531 5.013 0.033 0.315 0.331 0.56 0.645 0.53 0.157-0.015 0.3-0.090 0.4-0.212 0.101-0.122 0.148-0.276 0.133-0.434-0.301-3.11 1.982-5.885 5.092-6.187z"></path>
<path class="path4" fill="#fff" d="M25.391 27.514c0.013 0.056 0.034 0.108 0.064 0.158 0.131 0.224 0.399 0.337 0.653 0.276 2.454-0.605 3.96-3.092 3.355-5.548-0.076-0.308-0.407-0.508-0.717-0.432-0.153 0.038-0.283 0.134-0.365 0.268-0.083 0.137-0.105 0.296-0.068 0.449 0.216 0.879 0.078 1.794-0.393 2.572s-1.215 1.327-2.095 1.543c-0.317 0.078-0.511 0.398-0.434 0.715z"></path>
<path class="path5" fill="#fff" d="M31.085 21.476c-0.154 0.038-0.283 0.133-0.366 0.268-0.081 0.136-0.107 0.294-0.069 0.449 0.748 3.033-1.112 6.108-4.145 6.855-0.316 0.079-0.51 0.399-0.433 0.716 0.012 0.056 0.033 0.107 0.062 0.157 0.131 0.224 0.4 0.338 0.654 0.276 1.773-0.437 3.271-1.539 4.219-3.107 0.947-1.567 1.229-3.406 0.792-5.182-0.077-0.306-0.408-0.506-0.714-0.431z"></path>
</symbol>
<symbol id="icon-photos" viewBox="0 0 32 32">
<title>photos</title>
<path class="path1" fill="#29c689" d="M17.165 2.437h-13.504c-0.417 0-0.754 0.338-0.754 0.754v13.504c0 0.417 0.338 0.754 0.754 0.754h13.504c0.417 0 0.754-0.338 0.754-0.754v-13.504c0-0.417-0.338-0.754-0.754-0.754zM6.715 8.278c0-0.739 0.602-1.341 1.341-1.341s1.341 0.602 1.341 1.341-0.602 1.341-1.341 1.341-1.341-0.601-1.341-1.341zM14.373 15.94h-3.205v-2.147c0-0.428 0.167-0.831 0.469-1.134s0.705-0.469 1.133-0.469c0.884 0 1.603 0.719 1.603 1.603v2.147zM12.77 10.681c-0.739 0-1.341-0.602-1.341-1.341s0.602-1.341 1.341-1.341 1.341 0.602 1.341 1.341-0.601 1.341-1.341 1.341zM8.056 11.128c0.884 0 1.603 0.719 1.603 1.603v3.209h-3.206v-3.209c0-0.884 0.719-1.603 1.603-1.603zM16.41 15.94h-0.529v-2.147c0-0.966-0.443-1.831-1.136-2.402 0.538-0.519 0.874-1.246 0.874-2.050 0-1.571-1.278-2.85-2.85-2.85-0.791 0-1.508 0.324-2.025 0.847-0.389-1.11-1.448-1.909-2.689-1.909-1.571 0-2.85 1.278-2.85 2.85 0 0.805 0.336 1.531 0.874 2.050-0.693 0.571-1.136 1.436-1.136 2.402v3.209h-0.529v-11.995h11.995v11.995z"></path>
<path class="path2" fill="#29c689" d="M30.696 9.218h-4.932v-2.976c0-0.417-0.338-0.754-0.754-0.754h-4.734v-4.733c0-0.417-0.338-0.754-0.754-0.754h-18.218c-0.417 0-0.754 0.338-0.754 0.754v21.273c0 0.417 0.338 0.754 0.754 0.754h4.733v4.734c0 0.417 0.338 0.754 0.754 0.754h4.932v2.976c0 0.417 0.338 0.754 0.754 0.754h18.218c0.417 0 0.754-0.338 0.754-0.754v-21.273c0-0.417-0.338-0.754-0.754-0.754zM24.255 6.996v2.222h-3.979v-2.222h3.979zM15.59 22.782h3.932c0.019 0 0.038-0.002 0.057-0.003l1.475 1.475c0.142 0.141 0.333 0.221 0.533 0.221s0.392-0.079 0.533-0.221l3.889-3.89c0.662-0.661 1.027-1.542 1.027-2.479s-0.365-1.816-1.027-2.478c-0.662-0.662-1.542-1.027-2.478-1.027-0.703 0-1.375 0.206-1.946 0.589-0.396-0.264-0.843-0.443-1.31-0.53v-1.276h7.308v11.995h-11.995v-2.377zM20.276 15.993c0.29 0.097 0.557 0.261 0.778 0.481 0.295 0.295 0.772 0.295 1.067 0 0.377-0.377 0.878-0.585 1.411-0.585s1.034 0.208 1.411 0.585c0.377 0.377 0.585 0.878 0.585 1.411s-0.208 1.035-0.585 1.411l-3.356 3.357-1.311-1.311v-5.35zM2.059 1.509h16.709v19.764h-16.709v-19.764zM7.546 26.761v-3.979h4.177v3.979h-4.177zM29.941 30.491h-16.709v-7.71h0.849v3.131c0 0.417 0.338 0.754 0.754 0.754h13.504c0.417 0 0.754-0.338 0.754-0.754v-13.504c0-0.417-0.338-0.754-0.754-0.754h-8.063v-0.928h9.665v19.764z"></path>
</symbol>
<symbol id="icon-polygraph" viewBox="0 0 32 32">
<title>polygraph</title>
<path class="path1" fill="#3174f1" d="M28.754 12.436c-0.001-0.001-0.002-0.002-0.004-0.003l-2.508-2.040v-2.611c0-0.168-0.067-0.33-0.186-0.449l-7.147-7.147c-0.119-0.119-0.28-0.186-0.449-0.186h-12.069c-0.35 0-0.635 0.284-0.635 0.635v9.779c-0.029 0.017-0.058 0.035-0.085 0.057l-2.422 1.961c-0.001 0.001-0.002 0.002-0.003 0.003-0.696 0.555-1.095 1.381-1.095 2.27v14.393c0 1.601 1.302 2.903 2.903 2.903h21.888c1.601 0 2.903-1.302 2.903-2.903v-14.393c0-0.888-0.398-1.713-1.092-2.268zM26.243 12.029l1.081 0.879-1.081 0.821v-1.701zM7.027 1.269h10.8v6.512c0 0.351 0.284 0.635 0.635 0.635h6.513v6.277l-8.974 6.819-8.973-6.819v-13.425zM19.096 2.167l4.981 4.98h-4.981v-4.98zM5.757 12.035v1.694l-1.079-0.82 1.079-0.874zM3.422 29.097v-14.393c0-0.339 0.103-0.662 0.292-0.933l11.189 8.502-11.336 7.494c-0.092-0.205-0.145-0.431-0.145-0.669zM26.944 30.731h-21.888c-0.181 0-0.354-0.031-0.516-0.085l11.46-7.576 11.46 7.576c-0.162 0.054-0.336 0.085-0.516 0.085zM28.578 29.097c0 0.239-0.053 0.465-0.145 0.669l-11.336-7.494 11.189-8.502c0.189 0.27 0.292 0.594 0.292 0.933v14.393z"></path>
<path class="path2" fill="#3174f1" d="M19.886 14.623c0.795-1.267 0.759-2.329 0.588-2.998-0.327-1.282-1.419-2.178-2.657-2.178-0.673 0-1.306 0.275-1.818 0.773-0.512-0.499-1.145-0.773-1.817-0.773-1.237 0-2.329 0.895-2.656 2.178-0.17 0.668-0.207 1.731 0.588 2.998 0.703 1.122 1.909 2.153 3.582 3.066 0.095 0.052 0.199 0.078 0.304 0.078s0.209-0.026 0.304-0.078c1.674-0.913 2.88-1.945 3.583-3.066zM12.756 11.939c0.181-0.708 0.781-1.222 1.426-1.222 0.49 0 0.942 0.302 1.275 0.851 0.115 0.19 0.321 0.306 0.543 0.306v0c0.222 0 0.428-0.116 0.543-0.306 0.333-0.549 0.786-0.851 1.276-0.851 0.646 0 1.247 0.514 1.427 1.222 0.138 0.541 0.296 2.428-3.245 4.466-3.54-2.037-3.382-3.925-3.244-4.466z"></path>
</symbol>
<symbol id="icon-speakers" viewBox="0 0 32 32">
<title>speakers</title>
<path class="path1" fill="#5788bb" d="M26.316 0h-20.631c-0.282 0-0.511 0.229-0.511 0.511v30.979c0 0.282 0.229 0.511 0.511 0.511h20.631c0.282 0 0.511-0.229 0.511-0.511v-30.979c0-0.282-0.229-0.511-0.511-0.511zM25.805 30.979h-19.61v-29.957h19.61v29.957z"></path>
<path class="path2" fill="#5788bb" d="M29.098 18.622c-0.162-0.231-0.481-0.286-0.711-0.124s-0.286 0.481-0.124 0.711c0.406 0.577 0.62 1.257 0.62 1.965s-0.214 1.388-0.62 1.965c-0.162 0.231-0.107 0.549 0.124 0.711 0.089 0.063 0.192 0.093 0.293 0.093 0.161 0 0.319-0.076 0.418-0.217 0.527-0.75 0.806-1.633 0.806-2.552s-0.279-1.802-0.806-2.552z"></path>
<path class="path3" fill="#5788bb" d="M30.813 17.417c-0.162-0.231-0.481-0.286-0.711-0.124s-0.286 0.481-0.124 0.711c0.655 0.932 1.001 2.028 1.001 3.17s-0.346 2.238-1.001 3.17c-0.162 0.231-0.107 0.549 0.124 0.711 0.089 0.063 0.192 0.093 0.293 0.093 0.161 0 0.319-0.076 0.418-0.217 0.776-1.105 1.187-2.404 1.187-3.757s-0.41-2.652-1.187-3.757z"></path>
<path class="path4" fill="#5788bb" d="M3.613 18.497c-0.231-0.162-0.549-0.107-0.711 0.124-0.527 0.75-0.806 1.633-0.806 2.552s0.279 1.802 0.806 2.552c0.099 0.141 0.258 0.217 0.418 0.217 0.101 0 0.204-0.030 0.293-0.093 0.231-0.162 0.286-0.481 0.124-0.711-0.406-0.577-0.62-1.257-0.62-1.965s0.214-1.388 0.62-1.965c0.162-0.231 0.107-0.549-0.124-0.711z"></path>
<path class="path5" fill="#5788bb" d="M1.021 21.174c0-1.142 0.346-2.238 1.001-3.17 0.162-0.231 0.107-0.549-0.124-0.711s-0.549-0.107-0.711 0.124c-0.776 1.105-1.187 2.404-1.187 3.757s0.41 2.652 1.187 3.757c0.099 0.141 0.258 0.217 0.418 0.217 0.101 0 0.204-0.030 0.293-0.093 0.231-0.162 0.286-0.481 0.124-0.711-0.655-0.932-1.001-2.028-1.001-3.17z"></path>
<path class="path6" fill="#5788bb" d="M16 28.483c4.030 0 7.309-3.279 7.309-7.309s-3.279-7.309-7.309-7.309-7.309 3.279-7.309 7.309 3.279 7.309 7.309 7.309zM16 14.886c3.467 0 6.288 2.821 6.288 6.288s-2.821 6.288-6.288 6.288-6.288-2.821-6.288-6.288 2.821-6.288 6.288-6.288z"></path>
<path class="path7" fill="#5788bb" d="M17.532 21.174c0-0.83-0.702-1.532-1.532-1.532s-1.532 0.702-1.532 1.532 0.702 1.532 1.532 1.532 1.532-0.701 1.532-1.532zM16 21.684c-0.272 0-0.511-0.239-0.511-0.511s0.239-0.511 0.511-0.511 0.511 0.239 0.511 0.511-0.239 0.511-0.511 0.511z"></path>
<path class="path8" fill="#5788bb" d="M16 12.072c2.359 0 4.277-1.919 4.277-4.277s-1.919-4.277-4.277-4.277-4.277 1.919-4.277 4.277c0 2.359 1.919 4.277 4.277 4.277zM16 4.539c1.795 0 3.256 1.461 3.256 3.256s-1.461 3.256-3.256 3.256-3.256-1.461-3.256-3.256c0-1.795 1.461-3.256 3.256-3.256z"></path>
<path class="path9" fill="#5788bb" d="M16 10.030c1.232 0 2.235-1.003 2.235-2.235s-1.003-2.235-2.235-2.235-2.235 1.003-2.235 2.235 1.003 2.235 2.235 2.235zM16 6.581c0.669 0 1.214 0.544 1.214 1.214s-0.544 1.213-1.214 1.213-1.214-0.544-1.214-1.214 0.544-1.213 1.214-1.213z"></path>
<path class="path10" fill="#5788bb" d="M14.869 26.317c0.276 0.060 0.548-0.114 0.608-0.389s-0.114-0.548-0.389-0.608c-1.931-0.424-3.333-2.168-3.333-4.145 0-2.341 1.904-4.245 4.245-4.245s4.245 1.904 4.245 4.245c0 1.978-1.402 3.721-3.333 4.145-0.275 0.061-0.45 0.333-0.389 0.608 0.052 0.238 0.264 0.401 0.498 0.401 0.036 0 0.073-0.004 0.11-0.012 2.396-0.527 4.135-2.689 4.135-5.143 0-2.904-2.363-5.266-5.266-5.266s-5.266 2.362-5.266 5.266c0 2.453 1.739 4.616 4.135 5.143z"></path>
</symbol>
<symbol id="icon-suit" viewBox="0 0 32 32">
<title>suit</title>
<path class="path1" fill="#a05fbb" d="M10.989 6.601c0-0.286-0.232-0.518-0.518-0.518s-0.518 0.232-0.518 0.518v1.106c0 0.286 0.232 0.518 0.518 0.518s0.518-0.232 0.518-0.518v-1.106z"></path>
<path class="path2" fill="#a05fbb" d="M22.923 1.503l-1.458-0.263c0.043-0.125 0.037-0.263-0.019-0.385-0.066-0.143-0.193-0.248-0.345-0.286l-2.212-0.553c-0.263-0.066-0.532 0.082-0.618 0.339l-0.502 1.505-1.771 1.328-1.771-1.328-0.502-1.505c-0.086-0.257-0.355-0.405-0.618-0.339l-2.212 0.553c-0.153 0.038-0.28 0.143-0.345 0.286-0.056 0.122-0.062 0.26-0.019 0.385l-1.457 0.263c-0.774 0.14-1.336 0.812-1.336 1.598v12.004c0 0.408 0.227 0.776 0.592 0.958l1.62 0.81v0.233c0 0.286 0.232 0.518 0.518 0.518h0.587v13.857c0 0.286 0.232 0.518 0.518 0.518h2.765c0.266 0 0.488-0.201 0.516-0.465l1.143-11.050 1.143 11.050c0.027 0.264 0.25 0.465 0.516 0.465h2.765c0.286 0 0.518-0.232 0.518-0.518v-13.857h0.587c0.286 0 0.518-0.232 0.518-0.518v-0.233l1.619-0.81c0.365-0.183 0.592-0.55 0.592-0.958v-12.004c0-0.787-0.562-1.459-1.336-1.598zM15.689 4.251c0.092 0.069 0.202 0.104 0.311 0.104s0.219-0.035 0.311-0.104l0.884-0.663-0.581 1.743c-0.018 0.053-0.027 0.108-0.027 0.164v8.328h-1.175v-8.328c0-0.056-0.009-0.111-0.027-0.164l-0.581-1.743 0.884 0.663zM8.797 15.136c-0.012-0.006-0.019-0.018-0.019-0.031v-1.031l1.175 0.587v1.053l-1.156-0.578zM10.471 9.4c-0.286 0-0.518 0.232-0.518 0.518v3.584l-1.175-0.587v-9.814c0-0.284 0.203-0.528 0.483-0.578l1.752-0.316 0.538 1.076-0.437 0.874c-0.128 0.256-0.024 0.567 0.232 0.695s0.568 0.024 0.695-0.232l0.553-1.106c0.073-0.146 0.073-0.318 0-0.464l-0.76-1.52c-0.008-0.042-0.021-0.081-0.037-0.118l1.1-0.275 1.48 4.441v3.249l-1.23-2.459c-0.128-0.256-0.439-0.36-0.696-0.232s-0.36 0.439-0.232 0.696l2.157 4.314v3.195c0 1.239-1.008 2.246-2.246 2.246h-1.14v-6.669c0-0.286-0.232-0.518-0.518-0.518zM19.905 30.963h-1.779l-1.358-13.13c-0.042-0.401-0.364-0.693-0.768-0.693s-0.726 0.291-0.768 0.693l-1.358 13.13h-1.779v-13.339h0.035c1.634 0 2.992-1.2 3.242-2.765h1.258c0.249 1.565 1.608 2.765 3.242 2.765h0.035v13.339zM21.011 16.588h-1.14c-1.239 0-2.246-1.008-2.246-2.246v-3.195l2.157-4.314c0.128-0.256 0.024-0.567-0.232-0.696s-0.567-0.024-0.695 0.232l-1.23 2.459v-3.249l1.48-4.441 1.1 0.275c-0.017 0.037-0.029 0.076-0.037 0.118l-0.76 1.52c-0.073 0.146-0.073 0.318 0 0.464l0.553 1.106c0.128 0.256 0.439 0.36 0.695 0.232s0.36-0.439 0.232-0.695l-0.437-0.874 0.538-1.076 1.752 0.316c0.28 0.050 0.483 0.294 0.483 0.578v9.814l-1.175 0.587v-3.584c0-0.286-0.232-0.518-0.518-0.518s-0.518 0.232-0.518 0.518v6.669zM23.203 15.136l-1.156 0.578v-1.053l1.175-0.587v1.031c0 0.013-0.007 0.025-0.019 0.031z"></path>
<path class="path3" fill="#a05fbb" d="M21.529 8.225c0.286 0 0.518-0.232 0.518-0.518v-1.106c0-0.286-0.232-0.518-0.518-0.518s-0.518 0.232-0.518 0.518v1.106c0 0.286 0.232 0.518 0.518 0.518z"></path>
</symbol>
<symbol id="icon-tandem" viewBox="0 0 45 32">
<title>tandem</title>
<path class="path1" fill="#eb974e" d="M33.715 14.358c-0.167 0-0.333 0.011-0.5 0.027l-1.086-4.634 1.817-0.715c0.323-0.129 0.484-0.495 0.355-0.817s-0.495-0.484-0.817-0.355l-2.322 0.919c-0.29 0.113-0.457 0.425-0.382 0.731l0.387 1.65-7.579 1.054-0.457-1.371h0.339c0.349 0 0.634-0.285 0.634-0.634s-0.285-0.634-0.634-0.634h-2.629c-0.349 0-0.634 0.285-0.634 0.634s0.285 0.634 0.634 0.634h0.962l0.516 1.548-4.87 0.677-0.742-2.225h0.441c0.349 0 0.634-0.285 0.634-0.634s-0.285-0.634-0.634-0.634h-2.634c-0.349 0-0.634 0.285-0.634 0.634s0.285 0.634 0.634 0.634h0.86l0.833 2.505c-0.016 0.011-0.032 0.027-0.043 0.043l-1.758 1.887c-0.806-0.581-1.795-0.919-2.86-0.919-2.709 0-4.913 2.204-4.913 4.913s2.204 4.913 4.913 4.913c2.494 0 4.564-1.871 4.876-4.284h8.843c0.027 0 0.054 0 0.081-0.005 0 0 0.005 0 0.005 0v0c0.151-0.021 0.29-0.091 0.392-0.21l5.848-6.692 0.392 1.672c-1.86 0.699-3.188 2.5-3.188 4.601 0 2.709 2.204 4.913 4.913 4.913s4.913-2.204 4.913-4.913c0.005-2.709-2.199-4.913-4.908-4.913zM7.891 19.271c0-2.016 1.639-3.65 3.65-3.65 0.731 0 1.414 0.22 1.989 0.591l-2.451 2.629c-0.172 0.183-0.215 0.452-0.118 0.683s0.328 0.382 0.581 0.382h3.596c-0.301 1.715-1.795 3.021-3.596 3.021-2.010-0.005-3.65-1.639-3.65-3.655zM12.992 18.637l1.462-1.57c0.344 0.452 0.581 0.989 0.683 1.57h-2.145zM16.417 18.637c-0.124-0.941-0.511-1.806-1.091-2.5l1.333-1.43 1.306 3.929h-1.548zM19.298 18.637l-1.446-4.354 4.87-0.677 1.672 5.031h-5.096zM25.517 18.024l-1.527-4.591 6.311-0.876-4.784 5.467zM30.059 19.271c0-1.505 0.914-2.795 2.215-3.354l0.822 3.499c0.070 0.29 0.328 0.489 0.613 0.489 0.048 0 0.097-0.005 0.145-0.016 0.339-0.081 0.548-0.419 0.473-0.758l-0.822-3.499c0.070-0.005 0.14-0.005 0.204-0.005 2.016 0 3.65 1.639 3.65 3.65s-1.639 3.65-3.65 3.65c-2.010-0.005-3.65-1.639-3.65-3.655z"></path>
</symbol>
<symbol id="icon-theatre" viewBox="0 0 32 32">
<title>theatre</title>
<path class="path1" fill="#29c689" d="M8.090 16.315c-1.137 0.335-2.054 0.723-2.452 1.040-0.119 0.095-0.262 0.141-0.403 0.141-0.191 0-0.381-0.084-0.509-0.246-0.223-0.281-0.176-0.69 0.105-0.913 0.727-0.576 2.124-1.042 2.893-1.268 0.344-0.102 0.705 0.095 0.806 0.44s-0.095 0.705-0.44 0.807zM16.886 20.592c0.333 1.712 0.009 3.275-0.937 4.52-0.834 1.097-2.089 1.856-3.535 2.137-0.4 0.078-0.801 0.116-1.196 0.116-1.032 0-2.026-0.263-2.882-0.771-1.344-0.799-2.231-2.126-2.564-3.838l-0.006-0.034c-0.057-0.298 0.099-0.596 0.377-0.718 0.474-0.208 1.013-0.41 1.603-0.603 0.186-0.061 0.39-0.034 0.554 0.072 2.238 1.447 4.231 1.059 5.763-1.122 0.113-0.16 0.291-0.261 0.486-0.275 0.618-0.043 1.194-0.057 1.712-0.043 0.304 0.009 0.561 0.227 0.619 0.525l0.006 0.032-0 0zM15.684 21.329c-0.238 0.003-0.487 0.011-0.746 0.026-1.15 1.515-2.559 2.286-4.092 2.286-0.957 0-1.962-0.3-2.983-0.908-0.245 0.084-0.48 0.17-0.701 0.256 0.738 2.572 3.058 3.364 5.004 2.985s3.799-1.983 3.518-4.645zM12.32 15.491c1.179-0.116 2.175-0.1 2.663 0.044 0.061 0.018 0.123 0.027 0.184 0.027 0.281 0 0.54-0.183 0.623-0.466 0.101-0.344-0.096-0.705-0.44-0.806-0.845-0.248-2.184-0.186-3.158-0.090-0.357 0.035-0.618 0.353-0.583 0.71s0.354 0.618 0.71 0.583zM19.964 7.204c0.021 0.002 0.041 0.003 0.062 0.003 0.331 0 0.614-0.252 0.646-0.589 0.034-0.357-0.229-0.674-0.586-0.708-1.18-0.111-2.154-0.317-2.606-0.552-0.319-0.165-0.711-0.041-0.876 0.278s-0.041 0.71 0.278 0.876c0.823 0.427 2.284 0.617 3.082 0.692zM24.455 7.207c0.020 0 0.041-0.001 0.062-0.003 0.975-0.092 2.3-0.286 3.082-0.692 0.318-0.165 0.443-0.557 0.278-0.876s-0.557-0.443-0.876-0.278c-0.452 0.234-1.426 0.441-2.606 0.552-0.357 0.034-0.619 0.35-0.586 0.708 0.032 0.336 0.315 0.589 0.646 0.589zM20.922 19.879c0.884 4.54-2.332 9.265-7.648 11.236-0.066 0.025-0.136 0.038-0.206 0.040-0.144 0.004-0.287 0.006-0.43 0.006-5.476 0-10.013-3.126-10.875-7.551l-1.741-8.942c-0.173-0.889 0.698-1.707 2.741-2.575 1.66-0.705 3.913-1.354 6.344-1.827s4.763-0.719 6.566-0.687c2.22 0.038 3.334 0.469 3.507 1.358l1.741 8.942zM19.647 20.127l-1.729-8.881c-0.163-0.124-0.875-0.379-2.668-0.371-1.655 0.011-3.748 0.247-5.894 0.665s-4.174 0.984-5.712 1.595c-1.666 0.662-2.23 1.169-2.334 1.345l1.729 8.881c0.756 3.885 4.905 6.605 9.885 6.497 4.657-1.769 7.481-5.847 6.724-9.732zM28.817 1.42c-1.764-0.375-4.099-0.581-6.577-0.581s-4.813 0.206-6.577 0.581c-2.171 0.461-3.183 1.098-3.183 2.004v3.984c0 0.359 0.291 0.649 0.649 0.649s0.649-0.291 0.649-0.649v-3.922c0.136-0.153 0.786-0.543 2.548-0.874 1.627-0.305 3.726-0.474 5.912-0.474s4.285 0.168 5.912 0.474c1.762 0.331 2.413 0.721 2.548 0.874v9.048c0 3.647-2.966 6.875-7.38 8.033-0.347 0.091-0.555 0.446-0.464 0.793 0.076 0.292 0.34 0.485 0.628 0.485 0.055 0 0.11-0.007 0.165-0.021 2.383-0.625 4.441-1.82 5.952-3.455 1.569-1.698 2.398-3.715 2.398-5.834v-9.11c-0-0.906-1.012-1.542-3.183-2.004zM25.279 16.529c0.026 0 0.053-0.002 0.080-0.005 0.615-0.076 1.183-0.172 1.688-0.285 0.297-0.066 0.508-0.33 0.508-0.634v-0.033c0-1.705-0.593-3.155-1.716-4.193-1.15-1.064-2.767-1.6-4.434-1.47-0.358 0.028-0.625 0.34-0.597 0.698s0.34 0.626 0.698 0.597c1.309-0.102 2.566 0.309 3.451 1.128 0.743 0.687 1.18 1.629 1.278 2.746-0.234 0.043-0.48 0.082-0.737 0.118-1.034-0.925-2.127-1.439-3.253-1.529-0.357-0.028-0.671 0.238-0.699 0.596s0.238 0.671 0.596 0.699c0.903 0.072 1.808 0.538 2.688 1.385 0.122 0.117 0.283 0.181 0.45 0.181z"></path>
</symbol>
<symbol id="icon-wedding" viewBox="0 0 32 32">
<title>wedding</title>
<path class="path1" fill="#ff5859" d="M25.526 19.804c0.029-0.027 0.058-0.054 0.087-0.082 0.692-0.68 1.072-1.589 1.072-2.559v-1.83c0-1.838-1.495-3.333-3.333-3.333h-1.894c-1.075 0-1.95 0.875-1.95 1.95v3.165c0 0.927 0.349 1.778 0.921 2.423-0.457 0.142-0.872 0.406-1.197 0.769l-2.446 2.379c-0.013 0.012-0.025 0.025-0.037 0.039-0.152 0.174-0.372 0.274-0.604 0.274s-0.452-0.1-0.604-0.274c-0.018-0.021-0.037-0.040-0.058-0.058l-2.635-2.352c-0.345-0.377-0.821-0.607-1.329-0.644 0.329-0.67 0.514-1.423 0.514-2.218l0-1.548c0-0.935-0.364-1.815-1.026-2.476s-1.541-1.026-2.476-1.026h-0.073c-1.987 0-3.603 1.61-3.603 3.589 0 1.653-0.74 3.194-2.032 4.227l-0.558 0.446c-0.347 0.278-0.476 0.728-0.329 1.147s0.529 0.69 0.974 0.69h1.379c-0.104 0.234-0.195 0.477-0.272 0.731l-1.793 5.902c-0.226 0.743-0.095 1.569 0.34 2.157 0.333 0.449 0.817 0.707 1.328 0.707h8.371c0.51 0 0.994-0.258 1.328-0.707 0.436-0.587 0.566-1.414 0.34-2.157l-1.619-5.33c-0.107-0.352-0.479-0.551-0.832-0.444s-0.551 0.479-0.444 0.832l1.619 5.33c0.118 0.388 0.017 0.77-0.136 0.975-0.046 0.063-0.142 0.168-0.257 0.168h-8.371c-0.115 0-0.21-0.105-0.257-0.168-0.152-0.206-0.254-0.587-0.136-0.975l1.793-5.902c0.124-0.409 0.292-0.784 0.501-1.118h1.188c1.404 0 2.675-0.576 3.591-1.503h0.798c0.192 0 0.375 0.083 0.502 0.228 0.018 0.021 0.037 0.040 0.058 0.058l2.635 2.351c0.404 0.443 0.976 0.696 1.577 0.696 0.606 0 1.183-0.258 1.588-0.708l2.446-2.38c0.013-0.012 0.025-0.025 0.037-0.039 0.253-0.289 0.619-0.455 1.003-0.455h1.878c0 0 0.001 0 0.001 0h1.047c0.388 0 0.743 0.16 1 0.451s0.372 0.663 0.323 1.053l-0.394 3.387-1.853 0.926-1.745-0.873-0.251-2.11c-0.044-0.366-0.375-0.627-0.741-0.583s-0.627 0.375-0.583 0.741l0.844 7.087c0.083 0.666 0.652 1.168 1.323 1.168h2.422c0.671 0 1.24-0.502 1.324-1.174l0.979-8.41c0.095-0.759-0.141-1.522-0.647-2.096-0.18-0.204-0.389-0.378-0.618-0.516zM10.7 17.454c-0 2.049-1.667 3.716-3.716 3.716h-0.122c0.92-0.735 1.649-1.739 2.064-2.925 0.122-0.347-0.061-0.728-0.408-0.85s-0.728 0.061-0.85 0.408c-0.621 1.769-2.109 3.028-3.831 3.308 1.498-1.284 2.352-3.136 2.352-5.119 0-1.244 1.018-2.255 2.27-2.255h0.073c0.579 0 1.124 0.226 1.533 0.635s0.635 0.954 0.635 1.533l-0 1.548zM25.351 17.163v0c-0 0.61-0.239 1.181-0.674 1.608s-1.011 0.656-1.62 0.647c-1.222-0.020-2.217-1.054-2.217-2.303v-0.186c0.747 0.453 1.641 0.7 2.554 0.7 0.368 0 0.667-0.298 0.667-0.667s-0.299-0.667-0.667-0.667c-0.75 0-1.477-0.223-2.049-0.629-0.316-0.225-0.505-0.599-0.505-1.001v-0.717c0-0.34 0.277-0.617 0.617-0.617h1.894c1.103 0 2 0.897 2 2v1.83zM24.488 30.667l-2.421 0.004-0.404-3.388 1.258 0.629c0.188 0.094 0.409 0.094 0.596 0l1.37-0.685-0.4 3.44z"></path>
<path class="path2" fill="#ff5859" d="M23.077 0c-1.567 0-3.108 0.413-4.457 1.195-1.015 0.588-1.907 1.374-2.619 2.304-0.713-0.93-1.605-1.716-2.619-2.304-1.349-0.782-2.891-1.195-4.457-1.195-4.92 0-8.923 4.015-8.923 8.95 0 2.029 0.742 3.98 2.090 5.494 0.132 0.148 0.314 0.223 0.498 0.223 0.158 0 0.316-0.056 0.443-0.169 0.275-0.245 0.299-0.666 0.054-0.941-1.13-1.269-1.752-2.905-1.752-4.607 0-4.2 3.405-7.617 7.59-7.617 2.685 0 5.117 1.38 6.505 3.692 0.12 0.201 0.337 0.324 0.572 0.324s0.451-0.123 0.572-0.324c1.388-2.312 3.82-3.692 6.505-3.692 4.185 0 7.59 3.417 7.59 7.617 0 1.702-0.622 3.338-1.752 4.607-0.245 0.275-0.221 0.696 0.054 0.941s0.696 0.221 0.941-0.054c1.348-1.513 2.090-3.464 2.090-5.493 0-4.935-4.003-8.95-8.923-8.95z"></path>
</symbol>
</defs>
</svg>
