<?xml version="1.0" encoding="utf-8"?>
<!-- Generator: Adobe Illustrator 18.1.1, SVG Export Plug-In . SVG Version: 6.00 Build 0)  -->
<svg version="1.1" id="Capa_1" xmlns="http://www.w3.org/2000/svg" xmlns:xlink="http://www.w3.org/1999/xlink" x="0px" y="0px"
	 viewBox="0 0 841.9 595.3" enable-background="new 0 0 841.9 595.3" xml:space="preserve">
	<g fill="#fbb002">
<path fill="#3CBCC6" d="M627.2,267.1c-3.1,0-6.2,0.2-9.3,0.5l-20.2-86.2l33.8-13.3c6-2.4,9-9.2,6.6-15.2c-2.4-6-9.2-9-15.2-6.6
	l-43.2,17.1c-5.4,2.1-8.5,7.9-7.1,13.6l7.2,30.7l-141,19.6l-8.5-25.5h6.3c6.5,0,11.8-5.3,11.8-11.8c0-6.5-5.3-11.8-11.8-11.8h-48.9
	c-6.5,0-11.8,5.3-11.8,11.8c0,6.5,5.3,11.8,11.8,11.8h17.9l9.6,28.8l-90.6,12.6l-13.8-41.4h8.2c6.5,0,11.8-5.3,11.8-11.8
	c0-6.5-5.3-11.8-11.8-11.8H270c-6.5,0-11.8,5.3-11.8,11.8c0,6.5,5.3,11.8,11.8,11.8h16l15.5,46.6c-0.3,0.2-0.6,0.5-0.8,0.8
	l-32.7,35.1c-15-10.8-33.4-17.1-53.2-17.1c-50.4,0-91.4,41-91.4,91.4c0,50.4,41,91.4,91.4,91.4c46.4,0,84.9-34.8,90.7-79.7H470
	c0.5,0,1,0,1.5-0.1c0,0,0.1,0,0.1,0l0,0c2.8-0.4,5.4-1.7,7.3-3.9l108.8-124.5l7.3,31.1c-34.6,13-59.3,46.5-59.3,85.6
	c0,50.4,41,91.4,91.4,91.4c50.4,0,91.4-41,91.4-91.4C718.6,308.1,677.6,267.1,627.2,267.1z M146.8,358.5c0-37.5,30.5-67.9,67.9-67.9
	c13.6,0,26.3,4.1,37,11l-45.6,48.9c-3.2,3.4-4,8.4-2.2,12.7s6.1,7.1,10.8,7.1h66.9c-5.6,31.9-33.4,56.2-66.9,56.2
	C177.3,426.4,146.8,396,146.8,358.5z M241.7,346.7l27.2-29.2c6.4,8.4,10.8,18.4,12.7,29.2H241.7z M305.4,346.7
	c-2.3-17.5-9.5-33.6-20.3-46.5l24.8-26.6l24.3,73.1H305.4z M359,346.7l-26.9-81l90.6-12.6l31.1,93.6H359z M474.7,335.3l-28.4-85.4
	l117.4-16.3L474.7,335.3z M559.2,358.5c0-28,17-52,41.2-62.4l15.3,65.1c1.3,5.4,6.1,9.1,11.4,9.1c0.9,0,1.8-0.1,2.7-0.3
	c6.3-1.5,10.2-7.8,8.8-14.1l-15.3-65.1c1.3-0.1,2.6-0.1,3.8-0.1c37.5,0,67.9,30.5,67.9,67.9s-30.5,67.9-67.9,67.9
	C589.7,426.4,559.2,396,559.2,358.5z"/>
	</g>
</svg>
