<?xml version="1.0" encoding="iso-8859-1"?>
<!-- Generator: Adobe Illustrator 18.0.0, SVG Export Plug-In . SVG Version: 6.00 Build 0)  -->
<!DOCTYPE svg PUBLIC "-//W3C//DTD SVG 1.1//EN" "http://www.w3.org/Graphics/SVG/1.1/DTD/svg11.dtd">
<svg version="1.1" id="Capa_1" xmlns="http://www.w3.org/2000/svg" xmlns:xlink="http://www.w3.org/1999/xlink" x="0px" y="0px"
	 viewBox="0 0 424.184 424.184" style="enable-background:new 0 0 424.184 424.184;" xml:space="preserve">
<g fill="#29c689">
	<path d="M227.532,32.298H48.533c-5.523,0-10,4.477-10,10v179c0,5.523,4.477,10,10,10h178.999c5.522,0,10-4.477,10-10v-179
		C237.532,36.775,233.055,32.298,227.532,32.298z M89.012,109.737c0-9.801,7.974-17.774,17.774-17.774s17.774,7.974,17.774,17.774
		s-7.974,17.774-17.774,17.774S89.012,119.538,89.012,109.737z M190.525,211.298h-42.49v-28.457c0-5.673,2.211-11.012,6.221-15.029
		c4.012-4.012,9.346-6.221,15.02-6.221c11.717,0,21.25,9.533,21.25,21.25V211.298z M169.279,141.59
		c-9.801,0-17.774-7.974-17.774-17.774s7.974-17.774,17.774-17.774s17.774,7.974,17.774,17.774S179.08,141.59,169.279,141.59z
		 M106.787,147.512c11.715,0,21.246,9.531,21.246,21.246v42.54H85.54v-42.54C85.54,157.042,95.072,147.512,106.787,147.512z
		 M217.532,211.298h-7.007v-28.457c0-12.811-5.871-24.276-15.063-31.847c7.134-6.875,11.591-16.511,11.591-27.178
		c0-20.829-16.945-37.774-37.774-37.774c-10.49,0-19.991,4.301-26.842,11.227c-5.163-14.719-19.19-25.305-35.65-25.305
		c-20.829,0-37.774,16.945-37.774,37.774c0,10.666,4.457,20.3,11.59,27.176c-9.192,7.571-15.062,19.035-15.062,31.845v42.54h-7.007
		v-159h158.999V211.298z"/>
	<path d="M406.895,122.193h-65.371V82.743c0-5.523-4.478-10-10-10h-62.747V10c0-5.523-4.478-10-10-10H17.289
		c-5.523,0-10,4.477-10,10v281.986c0,5.523,4.477,10,10,10h62.745v62.747c0,5.523,4.477,10,10,10h65.371v39.451
		c0,5.523,4.477,10,10,10h241.49c5.522,0,10-4.477,10-10v-281.99C416.895,126.67,412.417,122.193,406.895,122.193z M321.524,92.743
		v29.451h-52.747V92.743H321.524z M206.655,301.986h52.122c0.253,0,0.502-0.02,0.75-0.038l19.556,19.556
		c1.876,1.875,4.419,2.929,7.071,2.929s5.196-1.054,7.071-2.93l51.556-51.565c8.778-8.768,13.613-20.436,13.613-32.855
		c0-12.408-4.833-24.075-13.608-32.851c-8.776-8.776-20.443-13.609-32.852-13.609c-9.321,0-18.224,2.727-25.797,7.805
		c-5.25-3.493-11.17-5.878-17.361-7.024v-16.911h96.878v159h-159V301.986z M268.777,211.995c3.846,1.291,7.387,3.459,10.307,6.38
		c3.906,3.905,10.236,3.905,14.143,0c4.998-4.999,11.643-7.751,18.709-7.751s13.711,2.753,18.709,7.751
		c4.998,4.999,7.751,11.643,7.751,18.709c0,7.073-2.751,13.716-7.751,18.71l-44.49,44.498l-17.377-17.378V211.995z M27.289,20
		h221.488v261.986H27.289V20z M100.033,354.733v-52.747h55.371v52.747H100.033z M396.895,404.184h-221.49V301.986h11.25v41.507
		c0,5.523,4.477,10,10,10h179c5.522,0,10-4.477,10-10v-179c0-5.523-4.478-10-10-10H268.777v-12.3h128.118V404.184z"/>
</g>

</svg>
